<svg width="889" height="405" viewBox="0 0 889 405" fill="none" xmlns="http://www.w3.org/2000/svg">
<path d="M422.46 177.345C413.008 177.891 404.457 180.085 395.606 184.248C388.836 187.432 382.635 191.425 376.304 196.718C373.774 198.827 368.693 203.734 366.953 205.74L366.643 206.089L362.752 204.215C355.201 200.589 354.551 200.513 358.012 203.706C360.492 206.004 367.543 211.937 370.853 214.537C378.614 220.612 386.995 225.274 395.506 228.259C411.768 233.966 429.23 233.806 446.063 227.798C448.633 226.884 449.943 226.347 452.763 225.029C455.734 223.644 457.584 222.674 459.614 221.393C461.594 220.16 462.154 219.698 462.785 218.803C463.485 217.796 463.675 217.598 464.175 217.391C464.795 217.127 465.205 217.278 466.065 218.088C467.485 219.444 468.135 219.943 468.845 220.263C470.155 220.856 471.346 220.8 472.806 220.084C474.206 219.387 475.086 218.502 475.536 217.353C475.856 216.515 475.836 215.045 475.476 213.774C474.796 211.391 472.946 208.312 470.876 206.145C468.265 203.414 463.885 199.468 461.114 197.33C451.533 189.946 441.622 185.614 431.081 184.211C428.17 183.815 426.9 183.74 423.61 183.74C419.819 183.74 417.629 183.9 414.109 184.446C402.337 186.273 389.836 191.783 378.254 200.25C375.634 202.161 372.343 204.836 370.433 206.607L369.503 207.464L368.353 206.918C367.723 206.626 367.203 206.343 367.203 206.305C367.203 206.268 367.733 205.759 368.383 205.194C385.345 190.191 402.337 182.252 419.839 181.131C423.13 180.924 428.54 181.103 431.711 181.517C445.152 183.288 457.944 189.07 469.265 198.46C470.686 199.647 472.676 201.502 474.896 203.715C476.726 205.543 477.806 206.371 479.217 207.021C480.107 207.436 480.217 207.464 480.967 207.464C481.657 207.464 481.827 207.426 482.227 207.21C483.547 206.475 484.327 204.337 483.867 202.679C483.477 201.276 482.847 200.504 480.637 198.771C466.665 187.799 452.613 181.008 438.482 178.409C434.141 177.618 430.291 177.279 425.86 177.298C424.27 177.307 422.74 177.326 422.46 177.345ZM425.86 186.895C436.211 187.535 445.532 191.142 453.563 197.631C456.514 200.005 460.484 204.111 461.814 206.136C463.905 209.31 463.335 213.313 460.454 215.78C456.834 218.869 452.013 221.459 447.063 222.976C443.992 223.908 440.202 224.633 437.061 224.897L436.261 224.963L436.871 224.53C437.782 223.88 439.112 222.721 439.922 221.874C444.932 216.618 447.003 209.602 445.552 202.708C444.692 198.583 442.622 194.844 439.492 191.726C438.852 191.095 438.782 191.048 437.942 190.813C432.151 189.155 423.56 188.533 416.509 189.24C413.208 189.579 409.678 190.276 406.948 191.142L405.748 191.519L404.967 192.348C401.777 195.748 399.837 199.816 399.197 204.403C399.007 205.835 399.047 208.641 399.297 210.195C399.887 213.915 401.337 217.23 403.667 220.197C403.967 220.574 404.207 220.904 404.207 220.922C404.207 221.054 397.407 218.897 393.956 217.683C386.835 215.158 378.674 211.787 371.263 208.293L369.773 207.596L371.263 206.55C381.205 199.609 389.986 194.815 398.807 191.5C405.318 189.051 411.398 187.61 417.609 187.027C420.229 186.782 423.32 186.735 425.86 186.895ZM424.11 200.504C424.47 200.579 425.12 200.805 425.56 201.012C430.321 203.188 431.081 209.282 427 212.474C426.28 213.03 424.82 213.699 423.96 213.868C423.05 214.047 421.71 214.047 420.789 213.868C420.389 213.783 419.629 213.529 419.109 213.284C418.309 212.917 418.029 212.729 417.249 211.994C416.489 211.278 416.269 210.996 415.869 210.242C415.319 209.187 415.109 208.349 415.109 207.181C415.109 204.601 416.509 202.378 418.909 201.135C420.439 200.334 422.25 200.118 424.11 200.504ZM407.408 206.663C409.138 206.814 410.618 206.946 410.688 206.946C410.768 206.946 410.808 207.115 410.808 207.502C410.808 208.227 411.058 209.555 411.348 210.374C411.488 210.741 411.578 211.052 411.568 211.062C411.458 211.175 405.368 213.896 405.308 213.868C405.178 213.793 404.407 211.504 404.207 210.581C403.957 209.489 403.807 208.189 403.807 207.153C403.807 206.418 403.817 206.381 404.037 206.381C404.157 206.381 405.678 206.513 407.408 206.663Z" fill="#F0E6EF"/>
<path d="M0.528015 253.825C0.912015 250.273 2.20802 247.681 4.41602 246.049C6.52802 244.513 9.31201 243.505 12.768 243.025C16.224 242.545 19.968 242.305 24 242.305C25.728 238.561 27.456 234.001 29.184 228.625C30.912 223.153 32.544 217.297 34.08 211.057C35.712 204.817 37.296 198.481 38.832 192.049C40.368 185.521 41.808 179.281 43.152 173.329C44.496 167.377 45.744 162.049 46.896 157.345C48.144 152.545 49.248 148.753 50.208 145.969C45.216 146.065 40.944 146.209 37.392 146.401C33.936 146.593 30.672 146.881 27.6 147.265C24.624 147.649 21.36 148.177 17.808 148.849C18.48 145.201 21.12 142.465 25.728 140.641C30.336 138.721 37.488 137.761 47.184 137.761C51.984 137.761 56.832 137.953 61.728 138.337C66.72 138.721 71.28 139.153 75.408 139.633C79.536 140.017 82.704 140.401 84.912 140.785C82.608 143.089 80.16 144.529 77.568 145.105C75.072 145.585 72.864 145.825 70.944 145.825C67.968 145.825 65.136 145.825 62.448 145.825C59.856 145.825 57.456 145.873 55.248 145.969C54.864 147.985 54.288 151.153 53.52 155.473C52.752 159.697 51.84 164.593 50.784 170.161C49.728 175.633 48.624 181.345 47.472 187.297C46.32 193.153 45.168 198.769 44.016 204.145C42.96 209.425 41.952 213.985 40.992 217.825C39.456 223.969 37.728 229.153 35.808 233.377C33.888 237.601 31.584 240.625 28.896 242.449C33.888 242.737 39.216 243.217 44.88 243.889C50.544 244.657 55.632 245.089 60.144 245.185C57.36 247.969 54.432 249.697 51.36 250.369C48.384 251.041 45.888 251.377 43.872 251.377C36.096 251.473 28.656 251.569 21.552 251.665C14.544 251.761 7.53602 252.481 0.528015 253.825ZM76.2304 245.473C73.8304 245.473 71.4304 244.513 69.0304 242.593C66.6304 240.673 65.4304 237.601 65.4304 233.377C65.4304 230.209 66.1984 226.657 67.7344 222.721C69.2704 218.785 71.3344 214.897 73.9264 211.057C76.5184 207.121 79.4944 203.521 82.8544 200.257C86.2144 196.897 89.7184 194.257 93.3664 192.337C97.0144 190.321 100.614 189.313 104.166 189.313C108.39 189.313 110.502 190.801 110.502 193.777C110.502 194.161 110.454 194.497 110.358 194.785C110.358 195.073 110.31 195.409 110.214 195.793C109.254 194.353 107.43 193.633 104.742 193.633C101.67 193.633 98.6464 194.593 95.6704 196.513C92.7904 198.337 90.1024 200.785 87.6064 203.857C85.2064 206.833 83.0944 210.049 81.2704 213.505C79.4464 216.961 78.0064 220.321 76.9504 223.585C75.9904 226.753 75.5104 229.441 75.5104 231.649C75.5104 233.761 75.9904 235.441 76.9504 236.689C77.9104 237.937 79.1584 238.561 80.6944 238.561C83.2864 238.561 86.4064 236.929 90.0544 233.665C93.7984 230.401 97.5904 225.793 101.43 219.841C105.27 213.889 108.726 206.929 111.798 198.961C113.91 193.393 116.07 187.729 118.278 181.969C120.582 176.209 122.886 170.689 125.19 165.409C127.494 160.033 129.702 155.281 131.814 151.153C134.022 146.929 136.086 143.617 138.006 141.217C140.022 138.721 141.798 137.473 143.334 137.473C144.102 137.473 144.774 137.809 145.35 138.481C145.926 139.057 146.214 139.825 146.214 140.785C146.214 142.321 145.398 144.961 143.766 148.705C142.23 152.353 140.166 156.769 137.574 161.953C135.078 167.041 132.438 172.609 129.654 178.657C126.87 184.705 124.182 190.849 121.59 197.089C119.094 203.329 117.03 209.377 115.398 215.233C113.862 220.993 113.094 226.273 113.094 231.073C113.094 233.761 113.238 235.777 113.526 237.121C113.814 238.465 114.774 239.137 116.406 239.137C118.422 239.137 120.774 238.273 123.462 236.545C126.15 234.817 128.838 232.369 131.526 229.201C134.214 226.033 136.566 222.241 138.582 217.825L140.31 219.121C138.486 224.017 135.99 228.433 132.822 232.369C129.654 236.209 126.246 239.233 122.598 241.441C119.046 243.745 115.638 244.897 112.374 244.897C108.822 244.897 106.326 243.697 104.886 241.297C103.542 238.993 102.87 236.593 102.87 234.097C102.87 232.465 103.11 230.305 103.59 227.617C104.07 224.929 104.742 221.953 105.606 218.689C102.534 223.777 99.2704 228.385 95.8144 232.513C92.3584 236.545 88.9504 239.713 85.5904 242.017C82.3264 244.321 79.2064 245.473 76.2304 245.473ZM141.989 281.473C139.589 281.473 137.477 280.801 135.653 279.457C133.829 278.209 132.917 276.337 132.917 273.841C132.917 269.713 134.213 266.161 136.805 263.185C139.493 260.209 142.949 257.473 147.173 254.977C151.493 252.577 156.053 250.177 160.853 247.777C162.197 244.225 163.541 240.289 164.885 235.969C166.325 231.553 167.669 226.705 168.917 221.425C165.845 226.417 162.533 230.737 158.981 234.385C155.525 237.937 151.829 239.713 147.893 239.713C145.109 239.713 142.469 238.801 139.973 236.977C137.573 235.057 136.373 232.081 136.373 228.049C136.373 225.361 136.805 222.241 137.669 218.689C138.629 215.137 139.781 211.681 141.125 208.321C142.469 204.961 143.861 202.177 145.301 199.969C146.741 197.761 147.989 196.657 149.045 196.657C149.429 196.657 150.101 196.801 151.061 197.089C152.117 197.377 153.077 197.809 153.941 198.385C154.901 198.865 155.381 199.393 155.381 199.969C154.517 201.217 153.557 202.993 152.501 205.297C151.445 207.601 150.389 210.193 149.333 213.073C148.373 215.857 147.557 218.593 146.885 221.281C146.213 223.969 145.877 226.273 145.877 228.193C145.877 229.921 146.261 231.313 147.029 232.369C147.797 233.425 149.141 233.953 151.061 233.953C152.885 233.953 154.901 233.089 157.109 231.361C159.413 229.537 161.669 227.233 163.877 224.449C166.181 221.665 168.293 218.689 170.213 215.521C170.501 214.465 170.741 213.409 170.933 212.353C171.221 211.201 171.461 210.049 171.653 208.897C171.941 207.553 172.613 206.017 173.669 204.289C174.821 202.465 176.597 201.553 178.997 201.553C179.861 201.553 180.869 201.697 182.021 201.985C182.021 203.521 181.541 206.401 180.581 210.625C179.717 214.753 178.421 219.601 176.693 225.169C175.061 230.737 173.093 236.449 170.789 242.305C175.301 240.577 179.717 237.745 184.037 233.809C188.357 229.777 191.861 224.449 194.549 217.825L196.421 219.265C194.981 223.873 192.773 227.905 189.797 231.361C186.917 234.721 183.653 237.649 180.005 240.145C176.357 242.545 172.757 244.561 169.205 246.193C166.709 252.337 163.973 258.097 160.997 263.473C158.117 268.849 155.045 273.169 151.781 276.433C148.613 279.793 145.349 281.473 141.989 281.473ZM141.269 276.865C142.709 276.865 145.109 274.945 148.469 271.105C151.925 267.361 155.573 260.737 159.413 251.233C155.477 253.345 151.829 255.409 148.469 257.425C145.109 259.537 142.421 261.793 140.405 264.193C138.389 266.593 137.381 269.377 137.381 272.545C137.381 273.313 137.669 274.225 138.245 275.281C138.821 276.337 139.829 276.865 141.269 276.865ZM203.718 245.473C199.59 245.473 196.614 244.033 194.79 241.153C193.062 238.369 192.198 234.865 192.198 230.641C192.198 226.033 193.062 220.561 194.79 214.225C196.518 207.889 198.774 201.217 201.558 194.209C204.438 187.201 207.558 180.385 210.918 173.761C214.278 167.041 217.638 160.945 220.998 155.473C224.358 150.001 227.43 145.633 230.214 142.369C233.094 139.105 235.35 137.473 236.982 137.473C238.038 137.473 238.902 138.097 239.574 139.345C240.246 140.497 240.774 141.937 241.158 143.665C241.542 145.297 241.734 146.785 241.734 148.129C241.734 150.721 241.062 154.129 239.718 158.353C238.47 162.481 236.646 167.137 234.246 172.321C231.942 177.409 229.158 182.593 225.894 187.873C222.726 193.057 219.222 198.049 215.382 202.849C211.638 207.649 207.654 211.777 203.43 215.233C202.854 217.825 202.374 220.369 201.99 222.865C201.702 225.265 201.558 227.569 201.558 229.777C201.558 237.169 203.67 240.865 207.894 240.865C210.198 240.865 212.502 239.905 214.806 237.985C217.206 235.969 219.462 233.425 221.574 230.353C223.782 227.281 225.702 224.017 227.334 220.561C228.294 215.569 229.734 210.241 231.654 204.577C233.574 198.817 235.782 193.057 238.278 187.297C240.774 181.537 243.414 176.017 246.198 170.737C248.982 165.457 251.718 160.753 254.406 156.625C257.094 152.497 259.59 149.233 261.894 146.833C264.198 144.433 266.07 143.233 267.51 143.233C268.566 143.233 269.43 143.857 270.102 145.105C270.774 146.257 271.302 147.697 271.686 149.425C272.07 151.057 272.262 152.545 272.262 153.889C272.262 157.057 271.446 161.233 269.814 166.417C268.182 171.505 265.83 176.977 262.758 182.833C259.782 188.689 256.134 194.497 251.814 200.257C247.59 205.921 242.838 210.913 237.558 215.233C236.982 217.825 236.502 220.369 236.118 222.865C235.83 225.265 235.686 227.569 235.686 229.777C235.686 237.169 237.798 240.865 242.022 240.865C244.614 240.865 247.158 239.713 249.654 237.409C252.246 235.105 254.646 232.225 256.854 228.769C259.158 225.217 261.126 221.569 262.758 217.825L264.918 218.977C261.078 227.137 256.902 233.617 252.39 238.417C247.878 243.121 243.03 245.473 237.846 245.473C233.238 245.473 230.07 243.745 228.342 240.289C226.614 236.833 225.99 232.513 226.47 227.329C223.11 232.993 219.51 237.457 215.67 240.721C211.926 243.889 207.942 245.473 203.718 245.473ZM204.726 210.337C208.086 206.977 211.35 203.137 214.518 198.817C217.686 194.401 220.614 189.841 223.302 185.137C226.086 180.433 228.534 175.873 230.646 171.457C232.758 167.041 234.39 163.105 235.542 159.649C236.694 156.097 237.27 153.361 237.27 151.441C237.27 150.481 237.126 149.857 236.838 149.569C236.646 149.281 236.454 149.137 236.262 149.137C235.494 149.137 234.15 150.385 232.23 152.881C230.406 155.281 228.246 158.545 225.75 162.673C223.254 166.801 220.71 171.505 218.118 176.785C215.526 182.065 213.03 187.585 210.63 193.345C208.326 199.105 206.358 204.769 204.726 210.337ZM238.854 210.337C243.078 206.113 246.918 201.457 250.374 196.369C253.926 191.281 256.998 186.193 259.59 181.105C262.182 176.017 264.198 171.361 265.638 167.137C267.078 162.913 267.798 159.601 267.798 157.201C267.798 156.241 267.654 155.617 267.366 155.329C267.174 155.041 266.982 154.897 266.79 154.897C265.83 154.897 264.198 156.481 261.894 159.649C259.686 162.721 257.142 166.897 254.262 172.177C251.478 177.457 248.694 183.409 245.91 190.033C243.222 196.657 240.87 203.425 238.854 210.337ZM275.38 247.489C269.524 247.489 265.108 245.857 262.132 242.593C259.252 239.425 257.812 235.489 257.812 230.785C257.812 226.465 258.868 221.905 260.98 217.105C263.188 212.305 266.068 207.793 269.62 203.569C273.268 199.345 277.252 195.937 281.572 193.345C285.892 190.657 290.164 189.313 294.388 189.313C296.596 189.313 298.612 189.889 300.436 191.041C302.356 192.193 303.316 194.545 303.316 198.097C303.316 201.745 302.212 205.201 300.004 208.465C297.892 211.633 295.06 214.465 291.508 216.961C288.052 219.457 284.212 221.521 279.988 223.153C275.86 224.689 271.732 225.649 267.604 226.033C267.412 226.993 267.268 227.905 267.172 228.769C267.076 229.633 267.028 230.449 267.028 231.217C267.028 234.193 267.796 236.977 269.332 239.569C270.964 242.065 273.988 243.313 278.404 243.313C282.532 243.313 286.612 242.161 290.644 239.857C294.676 237.457 298.42 234.337 301.876 230.497C305.332 226.657 308.26 222.433 310.66 217.825L312.388 219.121C309.796 224.881 306.484 229.873 302.452 234.097C298.516 238.321 294.196 241.585 289.492 243.889C284.884 246.289 280.18 247.489 275.38 247.489ZM268.324 223.297C270.916 222.433 273.844 221.185 277.108 219.553C280.372 217.825 283.492 215.809 286.468 213.505C289.54 211.201 292.036 208.657 293.956 205.873C295.972 203.089 296.98 200.161 296.98 197.089C296.98 196.033 296.788 195.217 296.404 194.641C296.02 194.065 295.204 193.777 293.956 193.777C291.652 193.777 289.204 194.689 286.612 196.513C284.02 198.241 281.524 200.545 279.124 203.425C276.724 206.305 274.564 209.473 272.644 212.929C270.724 216.385 269.284 219.841 268.324 223.297Z" fill="#F0E6EF"/>
<path d="M550.72 247.14C545.44 247.14 541.456 246.228 538.768 244.404C536.08 242.676 534.736 239.748 534.736 235.62C534.736 235.332 534.976 235.188 535.456 235.188C536.128 235.188 537.328 235.428 539.056 235.908C540.784 236.388 544.096 236.628 548.992 236.628C557.248 236.628 564.88 235.716 571.888 233.892C578.896 231.972 584.944 229.38 590.032 226.116C595.216 222.852 599.2 219.204 601.984 215.172C604.864 211.044 606.304 206.82 606.304 202.5C606.304 198.564 605.2 195.396 602.992 192.996C600.784 190.596 597.856 188.772 594.208 187.524C590.656 186.276 586.768 185.46 582.544 185.076C578.32 184.596 574.144 184.356 570.016 184.356C568.192 184.356 566.32 184.404 564.4 184.5C562.576 184.5 560.848 184.5 559.216 184.5C557.008 192.276 554.848 200.1 552.736 207.972C550.624 215.844 548.464 223.476 546.256 230.868C543.856 230.868 541.84 230.196 540.208 228.852C538.576 227.508 537.76 225.876 537.76 223.956C537.76 222.804 538 221.46 538.48 219.924C538.96 218.388 539.392 216.996 539.776 215.748C540.352 213.828 541.36 210.612 542.8 206.1C544.24 201.588 545.968 196.308 547.984 190.26C550.096 184.212 552.4 177.876 554.896 171.252C557.392 164.628 559.936 158.148 562.528 151.812C565.216 145.476 567.808 139.86 570.304 134.964C566.272 135.636 562.864 136.596 560.08 137.844C557.392 139.092 555.28 140.244 553.744 141.3C552.208 142.26 551.104 142.74 550.432 142.74C549.76 142.74 548.8 142.26 547.552 141.3C546.4 140.34 545.824 139.524 545.824 138.852C550.624 136.836 555.616 135.012 560.8 133.38C566.08 131.748 572.464 130.932 579.952 130.932C583.12 130.932 586.624 131.22 590.464 131.796C594.304 132.276 597.952 133.332 601.408 134.964C604.864 136.5 607.696 138.804 609.904 141.876C612.112 144.852 613.216 148.836 613.216 153.828C613.216 158.532 612.208 162.564 610.192 165.924C608.176 169.188 605.536 171.924 602.272 174.132C599.008 176.244 595.456 177.924 591.616 179.172C587.776 180.42 583.984 181.332 580.24 181.908C587.344 182.292 593.056 183.3 597.376 184.932C601.792 186.564 605.104 188.532 607.312 190.836C609.616 193.044 611.152 195.396 611.92 197.892C612.688 200.388 613.072 202.788 613.072 205.092C613.072 210.66 611.632 215.7 608.752 220.212C605.872 224.724 602.08 228.66 597.376 232.02C592.672 235.38 587.536 238.164 581.968 240.372C576.4 242.676 570.88 244.356 565.408 245.412C559.936 246.564 555.04 247.14 550.72 247.14ZM560.08 181.188C565.36 180.996 570.592 180.42 575.776 179.46C581.056 178.404 585.856 176.772 590.176 174.564C594.496 172.356 597.952 169.476 600.544 165.924C603.232 162.372 604.576 157.956 604.576 152.676C604.576 147.684 603.376 143.844 600.976 141.156C598.672 138.468 595.648 136.596 591.904 135.54C588.256 134.484 584.368 133.956 580.24 133.956C579.76 133.956 579.28 133.956 578.8 133.956C578.416 133.956 577.984 134.004 577.504 134.1C574.048 140.82 570.88 148.212 568 156.276C565.216 164.34 562.576 172.644 560.08 181.188ZM635.161 240.948C629.305 240.948 624.889 239.316 621.913 236.052C619.033 232.884 617.593 228.948 617.593 224.244C617.593 219.924 618.649 215.364 620.761 210.564C622.969 205.764 625.849 201.252 629.401 197.028C633.049 192.804 637.033 189.396 641.353 186.804C645.673 184.116 649.945 182.772 654.169 182.772C656.377 182.772 658.393 183.348 660.217 184.5C662.137 185.652 663.097 188.004 663.097 191.556C663.097 195.204 661.993 198.66 659.785 201.924C657.673 205.092 654.841 207.924 651.289 210.42C647.833 212.916 643.993 214.98 639.769 216.612C635.641 218.148 631.513 219.108 627.385 219.492C627.193 220.452 627.049 221.364 626.953 222.228C626.857 223.092 626.809 223.908 626.809 224.676C626.809 227.652 627.577 230.436 629.113 233.028C630.745 235.524 633.769 236.772 638.185 236.772C642.313 236.772 646.393 235.62 650.425 233.316C654.457 230.916 658.201 227.796 661.657 223.956C665.113 220.116 668.041 215.892 670.441 211.284L672.169 212.58C669.577 218.34 666.265 223.332 662.233 227.556C658.297 231.78 653.977 235.044 649.273 237.348C644.665 239.748 639.961 240.948 635.161 240.948ZM628.105 216.756C630.697 215.892 633.625 214.644 636.889 213.012C640.153 211.284 643.273 209.268 646.249 206.964C649.321 204.66 651.817 202.116 653.737 199.332C655.753 196.548 656.761 193.62 656.761 190.548C656.761 189.492 656.569 188.676 656.185 188.1C655.801 187.524 654.985 187.236 653.737 187.236C651.433 187.236 648.985 188.148 646.393 189.972C643.801 191.7 641.305 194.004 638.905 196.884C636.505 199.764 634.345 202.932 632.425 206.388C630.505 209.844 629.065 213.3 628.105 216.756ZM674.475 241.38C671.499 241.38 669.003 240.372 666.986 238.356C664.874 236.436 663.818 233.46 663.818 229.428C663.818 225.972 664.586 222.276 666.122 218.34C667.658 214.308 669.771 210.372 672.459 206.532C675.147 202.596 678.171 199.044 681.531 195.876C684.987 192.612 688.587 190.02 692.331 188.1C696.171 186.18 699.963 185.22 703.707 185.22C707.451 185.22 710.571 186.228 713.067 188.244C715.563 190.164 716.811 192.756 716.811 196.02C716.811 198.42 716.139 200.052 714.795 200.916C713.547 201.78 711.867 202.212 709.755 202.212C710.235 200.484 710.475 198.804 710.475 197.172C710.475 194.964 709.947 193.092 708.891 191.556C707.835 189.924 706.011 189.108 703.419 189.108C700.731 189.108 697.995 190.068 695.211 191.988C692.427 193.812 689.739 196.308 687.147 199.476C684.555 202.548 682.251 205.908 680.235 209.556C678.219 213.204 676.635 216.804 675.483 220.356C674.331 223.908 673.755 227.076 673.755 229.86C673.755 233.604 675.051 235.476 677.643 235.476C679.851 235.476 682.251 234.468 684.843 232.452C687.435 230.34 690.075 227.7 692.763 224.532C695.547 221.268 698.187 217.908 700.683 214.452C703.179 210.996 705.387 207.828 707.307 204.948C707.691 204.372 707.931 204.084 708.027 204.084C708.891 204.18 710.043 204.564 711.483 205.236C712.923 205.812 713.643 206.628 713.643 207.684C713.643 208.548 713.211 209.748 712.347 211.284C711.483 212.724 710.523 214.404 709.467 216.324C708.411 218.244 707.451 220.212 706.587 222.228C705.723 224.148 705.291 225.972 705.291 227.7C705.291 229.14 705.675 230.58 706.443 232.02C707.211 233.364 708.459 234.036 710.187 234.036C712.779 234.036 716.187 232.164 720.411 228.42C724.635 224.58 728.907 218.868 733.227 211.284L734.667 212.724C732.651 217.908 730.059 222.468 726.891 226.404C723.723 230.34 720.315 233.412 716.667 235.62C713.115 237.828 709.611 238.932 706.155 238.932C702.603 238.932 699.963 237.876 698.235 235.764C696.603 233.652 695.787 231.348 695.787 228.852C695.787 227.604 695.931 226.212 696.219 224.676C692.091 230.244 688.299 234.42 684.843 237.204C681.483 239.988 678.027 241.38 674.475 241.38ZM741.081 238.932C737.817 238.932 735.177 237.492 733.161 234.612C731.241 231.636 730.281 228.228 730.281 224.388C730.281 221.604 730.713 218.388 731.577 214.74C732.537 211.092 733.689 207.492 735.033 203.94C736.377 200.388 737.769 197.46 739.209 195.156C740.649 192.852 741.897 191.7 742.953 191.7C743.433 191.7 744.249 191.988 745.401 192.564C746.553 193.044 747.513 193.716 748.281 194.58C747.225 196.212 745.929 198.708 744.393 202.068C742.857 205.428 741.513 209.028 740.361 212.868C739.209 216.708 738.633 220.26 738.633 223.524C738.633 224.292 738.729 225.492 738.921 227.124C739.113 228.66 739.593 230.052 740.361 231.3C741.129 232.548 742.281 233.172 743.817 233.172C745.641 233.172 747.513 232.26 749.433 230.436C751.353 228.516 753.273 226.068 755.193 223.092C757.209 220.116 759.129 216.9 760.953 213.444C762.777 209.988 764.457 206.676 765.993 203.508C767.625 200.34 768.969 197.7 770.025 195.588C770.601 195.684 771.417 195.876 772.473 196.164C773.625 196.452 774.633 196.836 775.497 197.316C776.457 197.796 776.937 198.468 776.937 199.332C776.937 199.716 776.457 201.012 775.497 203.22C774.537 205.332 773.385 207.972 772.041 211.14C770.793 214.212 769.689 217.332 768.729 220.5C767.769 223.668 767.289 226.452 767.289 228.852C767.289 230.58 767.625 231.972 768.297 233.028C769.065 234.084 770.313 234.612 772.041 234.612C774.057 234.612 776.505 233.7 779.385 231.876C782.265 230.052 785.193 227.412 788.169 223.956C791.145 220.404 793.785 216.18 796.089 211.284L797.961 212.58C795.945 217.764 793.305 222.372 790.041 226.404C786.777 230.34 783.321 233.412 779.673 235.62C776.025 237.828 772.473 238.932 769.017 238.932C765.177 238.932 762.537 237.876 761.097 235.764C759.657 233.748 758.937 231.252 758.937 228.276C758.937 227.124 759.033 225.972 759.225 224.82C759.417 223.572 759.657 222.324 759.945 221.076C757.257 225.78 754.329 229.956 751.161 233.604C748.089 237.156 744.729 238.932 741.081 238.932ZM805.662 241.236C797.118 241.236 792.846 236.484 792.846 226.98C792.846 222.756 793.614 217.572 795.15 211.428C796.782 205.188 798.798 198.804 801.198 192.276C800.238 192.084 799.326 191.94 798.462 191.844C797.598 191.652 796.782 191.412 796.014 191.124V188.532C796.782 188.628 797.694 188.724 798.75 188.82C799.806 188.916 801.006 189.012 802.35 189.108C804.366 183.924 806.526 178.932 808.83 174.132C811.134 169.236 813.39 164.916 815.598 161.172C817.902 157.332 820.062 154.308 822.078 152.1C824.19 149.796 825.966 148.644 827.406 148.644C828.174 148.644 828.846 148.932 829.422 149.508C830.094 149.988 830.43 150.756 830.43 151.812C830.43 153.444 829.422 156.132 827.406 159.876C825.39 163.524 822.894 167.892 819.918 172.98C816.942 178.068 814.062 183.588 811.278 189.54H816.606C819.774 189.54 823.086 189.492 826.542 189.396C830.094 189.3 833.646 189.06 837.198 188.676V191.268C826.734 192.42 818.286 192.996 811.854 192.996H809.694C807.486 198.084 805.614 203.316 804.078 208.692C802.542 214.068 801.774 219.3 801.774 224.388C801.774 228.516 802.398 231.492 803.646 233.316C804.894 235.044 806.958 235.908 809.838 235.908C814.83 235.908 819.726 233.7 824.526 229.284C829.326 224.868 833.55 218.868 837.198 211.284L839.07 212.724C836.766 218.1 833.838 222.948 830.286 227.268C826.83 231.588 822.99 234.996 818.766 237.492C814.542 239.988 810.174 241.236 805.662 241.236ZM850.036 240.948C844.18 240.948 839.764 239.316 836.788 236.052C833.908 232.884 832.468 228.948 832.468 224.244C832.468 219.924 833.524 215.364 835.636 210.564C837.844 205.764 840.724 201.252 844.276 197.028C847.924 192.804 851.908 189.396 856.228 186.804C860.548 184.116 864.82 182.772 869.044 182.772C871.252 182.772 873.268 183.348 875.092 184.5C877.012 185.652 877.972 188.004 877.972 191.556C877.972 195.204 876.868 198.66 874.66 201.924C872.548 205.092 869.716 207.924 866.164 210.42C862.708 212.916 858.868 214.98 854.644 216.612C850.516 218.148 846.388 219.108 842.26 219.492C842.068 220.452 841.924 221.364 841.828 222.228C841.732 223.092 841.684 223.908 841.684 224.676C841.684 227.652 842.452 230.436 843.988 233.028C845.62 235.524 848.644 236.772 853.06 236.772C857.188 236.772 861.268 235.62 865.3 233.316C869.332 230.916 873.076 227.796 876.532 223.956C879.988 220.116 882.916 215.892 885.316 211.284L887.044 212.58C884.452 218.34 881.14 223.332 877.108 227.556C873.172 231.78 868.852 235.044 864.148 237.348C859.54 239.748 854.836 240.948 850.036 240.948ZM842.98 216.756C845.572 215.892 848.5 214.644 851.764 213.012C855.028 211.284 858.148 209.268 861.124 206.964C864.196 204.66 866.692 202.116 868.612 199.332C870.628 196.548 871.636 193.62 871.636 190.548C871.636 189.492 871.444 188.676 871.06 188.1C870.676 187.524 869.86 187.236 868.612 187.236C866.308 187.236 863.86 188.148 861.268 189.972C858.676 191.7 856.18 194.004 853.78 196.884C851.38 199.764 849.22 202.932 847.3 206.388C845.38 209.844 843.94 213.3 842.98 216.756ZM872.356 174.42C871.684 174.036 871.156 173.412 870.772 172.548C870.484 171.684 870.34 171.06 870.34 170.676C870.34 169.812 870.82 168.468 871.78 166.644C872.836 164.724 874.132 162.756 875.668 160.74C877.204 158.628 878.836 156.852 880.564 155.412C882.292 153.972 883.876 153.252 885.316 153.252C886.084 153.252 886.756 153.588 887.332 154.26C888.004 154.836 888.388 155.988 888.484 157.716C885.028 160.692 882.004 163.524 879.412 166.212C876.82 168.9 874.468 171.636 872.356 174.42Z" fill="#F0E6EF"/>
<path d="M482.607 185.997L508.318 157.367" stroke="#F1E3F0"/>
<path d="M338.393 157.367L364.105 185.997" stroke="#F1E3F0"/>
<path d="M483.393 232.117L509.105 260.747" stroke="#F1E3F0"/>
<path d="M337.607 260.747L363.318 232.117" stroke="#F1E3F0"/>
<path d="M335.458 86.4628L377.72 171.146" stroke="#F0E6EF"/>
<path d="M492.458 303.238L504.292 326.95" stroke="#F0E6EF"/>
<path d="M463.843 244.198L477.367 271.297" stroke="#F0E6EF"/>
<path d="M362.542 268.667L376.065 241.569" stroke="#F0E6EF"/>
<path d="M328.542 327.433L340.617 303.238" stroke="#F0E6EF"/>
<path d="M462.542 171.146L504.803 86.4632" stroke="#F0E6EF"/>
<path d="M391.197 271.722L395.017 251.478" stroke="#F8F0F7"/>
<path d="M371.507 377.172L385.437 303.356" stroke="#F8F0F7"/>
<path d="M443.507 157.475L467.817 28.6495" stroke="#F8F0F7"/>
<path d="M419.5 150.2V0.700012" stroke="white"/>
<path d="M419.5 404.35V303.438" stroke="white"/>
<path d="M419.5 265.128V253.916" stroke="white"/>
<path d="M372.493 33.3218L396.804 162.147" stroke="#F8F0F7"/>
<path d="M441.493 251.966L444.624 268.555" stroke="#F8F0F7"/>
<path d="M454.493 303.357L468.356 376.816" stroke="#F8F0F7"/>
<path d="M315.792 298.391V298.031L316.62 297.707C317.028 297.539 317.304 297.323 317.448 297.059C317.616 296.771 317.7 296.387 317.7 295.907V277.115C317.7 276.635 317.628 276.263 317.484 275.999C317.364 275.711 317.076 275.483 316.62 275.315L315.792 274.991V274.631H333.036L333.252 280.175H332.892L331.344 276.791C331.128 276.359 330.9 276.011 330.66 275.747C330.42 275.483 330.06 275.351 329.58 275.351H323.1V285.755H326.952C327.432 285.755 327.792 285.635 328.032 285.395C328.296 285.131 328.524 284.783 328.716 284.351L329.436 282.911H329.796V289.391H329.436L328.716 287.879C328.5 287.447 328.272 287.111 328.032 286.871C327.792 286.607 327.432 286.475 326.952 286.475H323.1V297.671H330.372C330.852 297.671 331.224 297.551 331.488 297.311C331.752 297.047 331.968 296.687 332.136 296.231L333.612 292.847H333.972L333.756 298.391H315.792ZM341.917 298.931C340.741 298.931 339.685 298.787 338.749 298.499C337.813 298.235 336.949 297.899 336.157 297.491L336.193 293.207H336.553L337.777 295.367C338.305 296.327 338.881 297.047 339.505 297.527C340.153 297.983 340.969 298.211 341.953 298.211C343.105 298.211 344.029 297.959 344.725 297.455C345.445 296.927 345.805 296.231 345.805 295.367C345.805 294.575 345.553 293.927 345.049 293.423C344.545 292.919 343.609 292.463 342.241 292.055L340.729 291.587C339.265 291.155 338.113 290.483 337.273 289.571C336.433 288.659 336.013 287.543 336.013 286.223C336.013 284.639 336.637 283.295 337.885 282.191C339.133 281.087 340.921 280.535 343.249 280.535C344.185 280.535 345.061 280.643 345.877 280.859C346.717 281.051 347.521 281.351 348.289 281.759L348.073 285.647H347.713L346.453 283.415C345.997 282.623 345.541 282.071 345.085 281.759C344.653 281.423 343.993 281.255 343.105 281.255C342.289 281.255 341.521 281.483 340.801 281.939C340.081 282.395 339.721 283.043 339.721 283.883C339.721 284.699 340.021 285.347 340.621 285.827C341.245 286.307 342.157 286.751 343.357 287.159L344.977 287.627C346.705 288.155 347.941 288.887 348.685 289.823C349.429 290.735 349.801 291.839 349.801 293.135C349.801 294.887 349.105 296.291 347.713 297.347C346.345 298.403 344.413 298.931 341.917 298.931ZM358.208 298.931C356.672 298.931 355.472 298.547 354.608 297.779C353.768 297.011 353.348 295.787 353.348 294.107V281.795H350.864V281.435L351.728 281.291C352.472 281.123 353.108 280.883 353.636 280.571C354.188 280.259 354.728 279.839 355.256 279.311L358.208 276.035H358.568L358.46 281.075H362.492V281.795H358.424V294.755C358.424 295.595 358.604 296.231 358.964 296.663C359.348 297.095 359.828 297.311 360.404 297.311C360.908 297.311 361.352 297.191 361.736 296.951C362.12 296.687 362.504 296.339 362.888 295.907L363.248 296.267C362.768 297.083 362.108 297.731 361.268 298.211C360.428 298.691 359.408 298.931 358.208 298.931ZM364.484 298.391V298.031L364.916 297.887C365.78 297.599 366.212 296.999 366.212 296.087V276.863C366.212 276.359 366.128 275.987 365.96 275.747C365.792 275.507 365.468 275.327 364.988 275.207L364.448 275.063V274.703L370.784 273.155L371.36 273.479L371.216 278.555V283.055C372.056 282.359 372.956 281.771 373.916 281.291C374.9 280.787 375.98 280.535 377.156 280.535C378.716 280.535 379.952 280.979 380.864 281.867C381.8 282.755 382.268 284.123 382.268 285.971V296.123C382.268 296.603 382.364 296.987 382.556 297.275C382.748 297.563 383.084 297.779 383.564 297.923L383.852 298.031V298.391H375.428V298.031L375.86 297.923C376.724 297.635 377.156 297.023 377.156 296.087V284.783C377.156 283.823 376.988 283.163 376.652 282.803C376.34 282.443 375.776 282.263 374.96 282.263C374.432 282.263 373.856 282.371 373.232 282.587C372.608 282.779 371.972 283.127 371.324 283.631V296.159C371.324 297.095 371.756 297.695 372.62 297.959L372.908 298.031V298.391H364.484ZM394.295 280.535C395.855 280.535 397.187 280.859 398.291 281.507C399.395 282.131 400.235 282.995 400.811 284.099C401.411 285.179 401.711 286.415 401.711 287.807C401.711 288.071 401.699 288.347 401.675 288.635C401.651 288.899 401.603 289.139 401.531 289.355H390.803C390.827 291.947 391.283 293.819 392.171 294.971C393.083 296.099 394.427 296.663 396.203 296.663C397.403 296.663 398.375 296.471 399.119 296.087C399.863 295.703 400.559 295.139 401.207 294.395L401.567 294.719C400.823 296.039 399.827 297.071 398.579 297.815C397.355 298.559 395.879 298.931 394.151 298.931C392.447 298.931 390.935 298.571 389.615 297.851C388.295 297.107 387.263 296.051 386.519 294.683C385.775 293.315 385.403 291.683 385.403 289.787C385.403 287.819 385.835 286.151 386.699 284.783C387.563 283.391 388.667 282.335 390.011 281.615C391.379 280.895 392.807 280.535 394.295 280.535ZM394.187 281.255C393.491 281.255 392.891 281.471 392.387 281.903C391.907 282.311 391.523 283.055 391.235 284.135C390.971 285.191 390.827 286.691 390.803 288.635H396.959C397.199 286.019 397.103 284.135 396.671 282.983C396.239 281.831 395.411 281.255 394.187 281.255ZM410.345 298.931C408.809 298.931 407.609 298.547 406.745 297.779C405.905 297.011 405.485 295.787 405.485 294.107V281.795H403.001V281.435L403.865 281.291C404.609 281.123 405.245 280.883 405.773 280.571C406.325 280.259 406.865 279.839 407.393 279.311L410.345 276.035H410.705L410.597 281.075H414.629V281.795H410.561V294.755C410.561 295.595 410.741 296.231 411.101 296.663C411.485 297.095 411.965 297.311 412.541 297.311C413.045 297.311 413.489 297.191 413.873 296.951C414.257 296.687 414.641 296.339 415.025 295.907L415.385 296.267C414.905 297.083 414.245 297.731 413.405 298.211C412.565 298.691 411.545 298.931 410.345 298.931ZM420.833 278.663C420.017 278.663 419.321 278.411 418.745 277.907C418.193 277.379 417.917 276.719 417.917 275.927C417.917 275.111 418.193 274.451 418.745 273.947C419.321 273.443 420.017 273.191 420.833 273.191C421.649 273.191 422.333 273.443 422.885 273.947C423.437 274.451 423.713 275.111 423.713 275.927C423.713 276.719 423.437 277.379 422.885 277.907C422.333 278.411 421.649 278.663 420.833 278.663ZM416.585 298.391V298.031L417.089 297.887C417.569 297.743 417.893 297.527 418.061 297.239C418.253 296.951 418.349 296.567 418.349 296.087V284.819C418.349 284.315 418.253 283.943 418.061 283.703C417.893 283.439 417.569 283.259 417.089 283.163L416.585 283.055V282.695L423.173 280.571L423.533 280.931L423.425 286.043V296.123C423.425 296.603 423.509 296.987 423.677 297.275C423.869 297.563 424.193 297.779 424.649 297.923L425.009 298.031V298.391H416.585ZM435.531 298.931C433.899 298.931 432.411 298.583 431.067 297.887C429.747 297.167 428.691 296.135 427.899 294.791C427.131 293.423 426.747 291.755 426.747 289.787C426.747 287.843 427.167 286.187 428.007 284.819C428.871 283.427 430.011 282.371 431.427 281.651C432.867 280.907 434.439 280.535 436.143 280.535C437.535 280.535 438.711 280.763 439.671 281.219C440.631 281.675 441.363 282.275 441.867 283.019C442.371 283.739 442.623 284.495 442.623 285.287C442.623 285.959 442.419 286.487 442.011 286.871C441.603 287.231 441.075 287.411 440.427 287.411C439.731 287.411 439.167 287.159 438.735 286.655C438.303 286.151 438.051 285.491 437.979 284.675C437.955 284.147 437.967 283.703 438.015 283.343C438.063 282.959 438.063 282.575 438.015 282.191C437.919 281.783 437.763 281.519 437.547 281.399C437.355 281.255 437.079 281.183 436.719 281.183C435.255 281.183 434.115 281.819 433.299 283.091C432.507 284.363 432.111 286.391 432.111 289.175C432.111 291.599 432.555 293.459 433.443 294.755C434.355 296.027 435.747 296.663 437.619 296.663C438.747 296.663 439.659 296.459 440.355 296.051C441.051 295.643 441.723 295.031 442.371 294.215L442.731 294.503C442.131 295.919 441.207 297.011 439.959 297.779C438.711 298.547 437.235 298.931 435.531 298.931ZM448.712 278.663C447.896 278.663 447.2 278.411 446.624 277.907C446.072 277.379 445.796 276.719 445.796 275.927C445.796 275.111 446.072 274.451 446.624 273.947C447.2 273.443 447.896 273.191 448.712 273.191C449.528 273.191 450.212 273.443 450.764 273.947C451.316 274.451 451.592 275.111 451.592 275.927C451.592 276.719 451.316 277.379 450.764 277.907C450.212 278.411 449.528 278.663 448.712 278.663ZM444.464 298.391V298.031L444.968 297.887C445.448 297.743 445.772 297.527 445.94 297.239C446.132 296.951 446.228 296.567 446.228 296.087V284.819C446.228 284.315 446.132 283.943 445.94 283.703C445.772 283.439 445.448 283.259 444.968 283.163L444.464 283.055V282.695L451.052 280.571L451.412 280.931L451.304 286.043V296.123C451.304 296.603 451.388 296.987 451.556 297.275C451.748 297.563 452.072 297.779 452.528 297.923L452.888 298.031V298.391H444.464ZM463.518 280.535C465.078 280.535 466.41 280.859 467.514 281.507C468.618 282.131 469.458 282.995 470.034 284.099C470.634 285.179 470.934 286.415 470.934 287.807C470.934 288.071 470.922 288.347 470.898 288.635C470.874 288.899 470.826 289.139 470.754 289.355H460.026C460.05 291.947 460.506 293.819 461.394 294.971C462.306 296.099 463.65 296.663 465.426 296.663C466.626 296.663 467.598 296.471 468.342 296.087C469.086 295.703 469.782 295.139 470.43 294.395L470.79 294.719C470.046 296.039 469.05 297.071 467.802 297.815C466.578 298.559 465.102 298.931 463.374 298.931C461.67 298.931 460.158 298.571 458.838 297.851C457.518 297.107 456.486 296.051 455.742 294.683C454.998 293.315 454.626 291.683 454.626 289.787C454.626 287.819 455.058 286.151 455.922 284.783C456.786 283.391 457.89 282.335 459.234 281.615C460.602 280.895 462.03 280.535 463.518 280.535ZM463.41 281.255C462.714 281.255 462.114 281.471 461.61 281.903C461.13 282.311 460.746 283.055 460.458 284.135C460.194 285.191 460.05 286.691 460.026 288.635H466.182C466.422 286.019 466.326 284.135 465.894 282.983C465.462 281.831 464.634 281.255 463.41 281.255ZM472.728 298.391V298.031L473.232 297.887C474.072 297.647 474.492 297.059 474.492 296.123V284.855C474.492 284.327 474.408 283.943 474.24 283.703C474.072 283.439 473.748 283.259 473.268 283.163L472.728 283.019V282.659L478.884 280.571L479.244 280.931L479.532 283.091C480.372 282.347 481.32 281.735 482.376 281.255C483.432 280.775 484.476 280.535 485.508 280.535C487.092 280.535 488.304 280.967 489.144 281.831C490.008 282.695 490.44 284.015 490.44 285.791V296.159C490.44 297.095 490.896 297.683 491.808 297.923L492.132 298.031V298.391H483.636V298.031L484.104 297.887C484.944 297.623 485.364 297.035 485.364 296.123V284.639C485.364 283.103 484.596 282.335 483.06 282.335C482.004 282.335 480.852 282.863 479.604 283.919V296.159C479.604 297.095 480.024 297.683 480.864 297.923L481.188 298.031V298.391H472.728ZM493.54 298.391V298.031L494.044 297.887C494.884 297.647 495.304 297.059 495.304 296.123V284.855C495.304 284.327 495.22 283.943 495.052 283.703C494.884 283.439 494.56 283.259 494.08 283.163L493.54 283.019V282.659L499.696 280.571L500.056 280.931L500.344 283.091C501.184 282.347 502.132 281.735 503.188 281.255C504.244 280.775 505.288 280.535 506.32 280.535C507.904 280.535 509.116 280.967 509.956 281.831C510.82 282.695 511.252 284.015 511.252 285.791V296.159C511.252 297.095 511.708 297.683 512.62 297.923L512.944 298.031V298.391H504.448V298.031L504.916 297.887C505.756 297.623 506.176 297.035 506.176 296.123V284.639C506.176 283.103 505.408 282.335 503.872 282.335C502.816 282.335 501.664 282.863 500.416 283.919V296.159C500.416 297.095 500.836 297.683 501.676 297.923L502 298.031V298.391H493.54ZM523.389 280.535C524.949 280.535 526.281 280.859 527.385 281.507C528.489 282.131 529.329 282.995 529.905 284.099C530.505 285.179 530.805 286.415 530.805 287.807C530.805 288.071 530.793 288.347 530.769 288.635C530.745 288.899 530.697 289.139 530.625 289.355H519.897C519.921 291.947 520.377 293.819 521.265 294.971C522.177 296.099 523.521 296.663 525.297 296.663C526.497 296.663 527.469 296.471 528.213 296.087C528.957 295.703 529.653 295.139 530.301 294.395L530.661 294.719C529.917 296.039 528.921 297.071 527.673 297.815C526.449 298.559 524.973 298.931 523.245 298.931C521.541 298.931 520.029 298.571 518.709 297.851C517.389 297.107 516.357 296.051 515.613 294.683C514.869 293.315 514.497 291.683 514.497 289.787C514.497 287.819 514.929 286.151 515.793 284.783C516.657 283.391 517.761 282.335 519.105 281.615C520.473 280.895 521.901 280.535 523.389 280.535ZM523.281 281.255C522.585 281.255 521.985 281.471 521.481 281.903C521.001 282.311 520.617 283.055 520.329 284.135C520.065 285.191 519.921 286.691 519.897 288.635H526.053C526.293 286.019 526.197 284.135 525.765 282.983C525.333 281.831 524.505 281.255 523.281 281.255Z" fill="#F0E6EF"/>
</svg>
