<svg width="1280" height="598" viewBox="0 0 1280 598" fill="none" xmlns="http://www.w3.org/2000/svg">
<path d="M648.46 266.345C639.008 266.891 630.457 269.085 621.606 273.248C614.836 276.432 608.635 280.425 602.304 285.718C599.774 287.827 594.693 292.734 592.953 294.74L592.643 295.089L588.752 293.215C581.201 289.589 580.551 289.513 584.012 292.706C586.492 295.004 593.543 300.937 596.853 303.537C604.614 309.612 612.995 314.274 621.506 317.259C637.768 322.966 655.23 322.806 672.063 316.798C674.633 315.884 675.943 315.347 678.763 314.029C681.734 312.644 683.584 311.674 685.614 310.393C687.594 309.16 688.154 308.698 688.785 307.803C689.485 306.796 689.675 306.598 690.175 306.391C690.795 306.127 691.205 306.278 692.065 307.088C693.485 308.444 694.135 308.943 694.845 309.263C696.155 309.856 697.346 309.8 698.806 309.084C700.206 308.387 701.086 307.502 701.536 306.353C701.856 305.515 701.836 304.045 701.476 302.774C700.796 300.391 698.946 297.312 696.876 295.145C694.265 292.414 689.885 288.468 687.114 286.33C677.533 278.946 667.622 274.614 657.081 273.211C654.17 272.815 652.9 272.74 649.61 272.74C645.819 272.74 643.629 272.9 640.109 273.446C628.337 275.273 615.836 280.783 604.254 289.25C601.634 291.161 598.343 293.836 596.433 295.607L595.503 296.464L594.353 295.918C593.723 295.626 593.203 295.343 593.203 295.305C593.203 295.268 593.733 294.759 594.383 294.194C611.345 279.191 628.337 271.252 645.839 270.131C649.13 269.924 654.54 270.103 657.711 270.517C671.152 272.288 683.944 278.07 695.265 287.46C696.686 288.647 698.676 290.502 700.896 292.715C702.726 294.543 703.806 295.371 705.217 296.021C706.107 296.436 706.217 296.464 706.967 296.464C707.657 296.464 707.827 296.426 708.227 296.21C709.547 295.475 710.327 293.337 709.867 291.679C709.477 290.276 708.847 289.504 706.637 287.771C692.665 276.799 678.613 270.008 664.482 267.409C660.141 266.618 656.291 266.279 651.86 266.298C650.27 266.307 648.74 266.326 648.46 266.345ZM651.86 275.895C662.211 276.535 671.532 280.142 679.563 286.631C682.514 289.005 686.484 293.111 687.814 295.136C689.905 298.31 689.335 302.313 686.454 304.78C682.834 307.869 678.013 310.459 673.063 311.976C669.992 312.908 666.202 313.633 663.061 313.897L662.261 313.963L662.871 313.53C663.782 312.88 665.112 311.721 665.922 310.874C670.932 305.618 673.003 298.602 671.552 291.708C670.692 287.583 668.622 283.844 665.492 280.726C664.852 280.095 664.782 280.048 663.942 279.813C658.151 278.155 649.56 277.533 642.509 278.24C639.208 278.579 635.678 279.276 632.948 280.142L631.748 280.519L630.967 281.348C627.777 284.748 625.837 288.816 625.197 293.403C625.007 294.835 625.047 297.641 625.297 299.195C625.887 302.915 627.337 306.23 629.667 309.197C629.967 309.574 630.207 309.904 630.207 309.922C630.207 310.054 623.407 307.897 619.956 306.683C612.835 304.158 604.674 300.787 597.263 297.293L595.773 296.596L597.263 295.55C607.205 288.609 615.986 283.815 624.807 280.5C631.318 278.051 637.398 276.61 643.609 276.027C646.229 275.782 649.32 275.735 651.86 275.895ZM650.11 289.504C650.47 289.579 651.12 289.805 651.56 290.012C656.321 292.188 657.081 298.282 653 301.474C652.28 302.03 650.82 302.699 649.96 302.868C649.05 303.047 647.71 303.047 646.789 302.868C646.389 302.783 645.629 302.529 645.109 302.284C644.309 301.917 644.029 301.729 643.249 300.994C642.489 300.278 642.269 299.996 641.869 299.242C641.319 298.187 641.109 297.349 641.109 296.181C641.109 293.601 642.509 291.378 644.909 290.135C646.439 289.334 648.25 289.118 650.11 289.504ZM633.408 295.663C635.138 295.814 636.618 295.946 636.688 295.946C636.768 295.946 636.808 296.115 636.808 296.502C636.808 297.227 637.058 298.555 637.348 299.374C637.488 299.741 637.578 300.052 637.568 300.062C637.458 300.175 631.368 302.896 631.308 302.868C631.178 302.793 630.407 300.504 630.207 299.581C629.957 298.489 629.807 297.189 629.807 296.153C629.807 295.418 629.817 295.381 630.037 295.381C630.157 295.381 631.678 295.513 633.408 295.663Z" fill="#9C89B8"/>
<path d="M226.528 342.825C226.912 339.273 228.208 336.681 230.416 335.049C232.528 333.513 235.312 332.505 238.768 332.025C242.224 331.545 245.968 331.305 250 331.305C251.728 327.561 253.456 323.001 255.184 317.625C256.912 312.153 258.544 306.297 260.08 300.057C261.712 293.817 263.296 287.481 264.832 281.049C266.368 274.521 267.808 268.281 269.152 262.329C270.496 256.377 271.744 251.049 272.896 246.345C274.144 241.545 275.248 237.753 276.208 234.969C271.216 235.065 266.944 235.209 263.392 235.401C259.936 235.593 256.672 235.881 253.6 236.265C250.624 236.649 247.36 237.177 243.808 237.849C244.48 234.201 247.12 231.465 251.728 229.641C256.336 227.721 263.488 226.761 273.184 226.761C277.984 226.761 282.832 226.953 287.728 227.337C292.72 227.721 297.28 228.153 301.408 228.633C305.536 229.017 308.704 229.401 310.912 229.785C308.608 232.089 306.16 233.529 303.568 234.105C301.072 234.585 298.864 234.825 296.944 234.825C293.968 234.825 291.136 234.825 288.448 234.825C285.856 234.825 283.456 234.873 281.248 234.969C280.864 236.985 280.288 240.153 279.52 244.473C278.752 248.697 277.84 253.593 276.784 259.161C275.728 264.633 274.624 270.345 273.472 276.297C272.32 282.153 271.168 287.769 270.016 293.145C268.96 298.425 267.952 302.985 266.992 306.825C265.456 312.969 263.728 318.153 261.808 322.377C259.888 326.601 257.584 329.625 254.896 331.449C259.888 331.737 265.216 332.217 270.88 332.889C276.544 333.657 281.632 334.089 286.144 334.185C283.36 336.969 280.432 338.697 277.36 339.369C274.384 340.041 271.888 340.377 269.872 340.377C262.096 340.473 254.656 340.569 247.552 340.665C240.544 340.761 233.536 341.481 226.528 342.825ZM302.23 334.473C299.83 334.473 297.43 333.513 295.03 331.593C292.63 329.673 291.43 326.601 291.43 322.377C291.43 319.209 292.198 315.657 293.734 311.721C295.27 307.785 297.334 303.897 299.926 300.057C302.518 296.121 305.494 292.521 308.854 289.257C312.214 285.897 315.718 283.257 319.366 281.337C323.014 279.321 326.614 278.313 330.166 278.313C334.39 278.313 336.502 279.801 336.502 282.777C336.502 283.161 336.454 283.497 336.358 283.785C336.358 284.073 336.31 284.409 336.214 284.793C335.254 283.353 333.43 282.633 330.742 282.633C327.67 282.633 324.646 283.593 321.67 285.513C318.79 287.337 316.102 289.785 313.606 292.857C311.206 295.833 309.094 299.049 307.27 302.505C305.446 305.961 304.006 309.321 302.95 312.585C301.99 315.753 301.51 318.441 301.51 320.649C301.51 322.761 301.99 324.441 302.95 325.689C303.91 326.937 305.158 327.561 306.694 327.561C309.286 327.561 312.406 325.929 316.054 322.665C319.798 319.401 323.59 314.793 327.43 308.841C331.27 302.889 334.726 295.929 337.798 287.961C339.91 282.393 342.07 276.729 344.278 270.969C346.582 265.209 348.886 259.689 351.19 254.409C353.494 249.033 355.702 244.281 357.814 240.153C360.022 235.929 362.086 232.617 364.006 230.217C366.022 227.721 367.798 226.473 369.334 226.473C370.102 226.473 370.774 226.809 371.35 227.481C371.926 228.057 372.214 228.825 372.214 229.785C372.214 231.321 371.398 233.961 369.766 237.705C368.23 241.353 366.166 245.769 363.574 250.953C361.078 256.041 358.438 261.609 355.654 267.657C352.87 273.705 350.182 279.849 347.59 286.089C345.094 292.329 343.03 298.377 341.398 304.233C339.862 309.993 339.094 315.273 339.094 320.073C339.094 322.761 339.238 324.777 339.526 326.121C339.814 327.465 340.774 328.137 342.406 328.137C344.422 328.137 346.774 327.273 349.462 325.545C352.15 323.817 354.838 321.369 357.526 318.201C360.214 315.033 362.566 311.241 364.582 306.825L366.31 308.121C364.486 313.017 361.99 317.433 358.822 321.369C355.654 325.209 352.246 328.233 348.598 330.441C345.046 332.745 341.638 333.897 338.374 333.897C334.822 333.897 332.326 332.697 330.886 330.297C329.542 327.993 328.87 325.593 328.87 323.097C328.87 321.465 329.11 319.305 329.59 316.617C330.07 313.929 330.742 310.953 331.606 307.689C328.534 312.777 325.27 317.385 321.814 321.513C318.358 325.545 314.95 328.713 311.59 331.017C308.326 333.321 305.206 334.473 302.23 334.473ZM367.989 370.473C365.589 370.473 363.477 369.801 361.653 368.457C359.829 367.209 358.917 365.337 358.917 362.841C358.917 358.713 360.213 355.161 362.805 352.185C365.493 349.209 368.949 346.473 373.173 343.977C377.493 341.577 382.053 339.177 386.853 336.777C388.197 333.225 389.541 329.289 390.885 324.969C392.325 320.553 393.669 315.705 394.917 310.425C391.845 315.417 388.533 319.737 384.981 323.385C381.525 326.937 377.829 328.713 373.893 328.713C371.109 328.713 368.469 327.801 365.973 325.977C363.573 324.057 362.373 321.081 362.373 317.049C362.373 314.361 362.805 311.241 363.669 307.689C364.629 304.137 365.781 300.681 367.125 297.321C368.469 293.961 369.861 291.177 371.301 288.969C372.741 286.761 373.989 285.657 375.045 285.657C375.429 285.657 376.101 285.801 377.061 286.089C378.117 286.377 379.077 286.809 379.941 287.385C380.901 287.865 381.381 288.393 381.381 288.969C380.517 290.217 379.557 291.993 378.501 294.297C377.445 296.601 376.389 299.193 375.333 302.073C374.373 304.857 373.557 307.593 372.885 310.281C372.213 312.969 371.877 315.273 371.877 317.193C371.877 318.921 372.261 320.313 373.029 321.369C373.797 322.425 375.141 322.953 377.061 322.953C378.885 322.953 380.901 322.089 383.109 320.361C385.413 318.537 387.669 316.233 389.877 313.449C392.181 310.665 394.293 307.689 396.213 304.521C396.501 303.465 396.741 302.409 396.933 301.353C397.221 300.201 397.461 299.049 397.653 297.897C397.941 296.553 398.613 295.017 399.669 293.289C400.821 291.465 402.597 290.553 404.997 290.553C405.861 290.553 406.869 290.697 408.021 290.985C408.021 292.521 407.541 295.401 406.581 299.625C405.717 303.753 404.421 308.601 402.693 314.169C401.061 319.737 399.093 325.449 396.789 331.305C401.301 329.577 405.717 326.745 410.037 322.809C414.357 318.777 417.861 313.449 420.549 306.825L422.421 308.265C420.981 312.873 418.773 316.905 415.797 320.361C412.917 323.721 409.653 326.649 406.005 329.145C402.357 331.545 398.757 333.561 395.205 335.193C392.709 341.337 389.973 347.097 386.997 352.473C384.117 357.849 381.045 362.169 377.781 365.433C374.613 368.793 371.349 370.473 367.989 370.473ZM367.269 365.865C368.709 365.865 371.109 363.945 374.469 360.105C377.925 356.361 381.573 349.737 385.413 340.233C381.477 342.345 377.829 344.409 374.469 346.425C371.109 348.537 368.421 350.793 366.405 353.193C364.389 355.593 363.381 358.377 363.381 361.545C363.381 362.313 363.669 363.225 364.245 364.281C364.821 365.337 365.829 365.865 367.269 365.865ZM429.718 334.473C425.59 334.473 422.614 333.033 420.79 330.153C419.062 327.369 418.198 323.865 418.198 319.641C418.198 315.033 419.062 309.561 420.79 303.225C422.518 296.889 424.774 290.217 427.558 283.209C430.438 276.201 433.558 269.385 436.918 262.761C440.278 256.041 443.638 249.945 446.998 244.473C450.358 239.001 453.43 234.633 456.214 231.369C459.094 228.105 461.35 226.473 462.982 226.473C464.038 226.473 464.902 227.097 465.574 228.345C466.246 229.497 466.774 230.937 467.158 232.665C467.542 234.297 467.734 235.785 467.734 237.129C467.734 239.721 467.062 243.129 465.718 247.353C464.47 251.481 462.646 256.137 460.246 261.321C457.942 266.409 455.158 271.593 451.894 276.873C448.726 282.057 445.222 287.049 441.382 291.849C437.638 296.649 433.654 300.777 429.43 304.233C428.854 306.825 428.374 309.369 427.99 311.865C427.702 314.265 427.558 316.569 427.558 318.777C427.558 326.169 429.67 329.865 433.894 329.865C436.198 329.865 438.502 328.905 440.806 326.985C443.206 324.969 445.462 322.425 447.574 319.353C449.782 316.281 451.702 313.017 453.334 309.561C454.294 304.569 455.734 299.241 457.654 293.577C459.574 287.817 461.782 282.057 464.278 276.297C466.774 270.537 469.414 265.017 472.198 259.737C474.982 254.457 477.718 249.753 480.406 245.625C483.094 241.497 485.59 238.233 487.894 235.833C490.198 233.433 492.07 232.233 493.51 232.233C494.566 232.233 495.43 232.857 496.102 234.105C496.774 235.257 497.302 236.697 497.686 238.425C498.07 240.057 498.262 241.545 498.262 242.889C498.262 246.057 497.446 250.233 495.814 255.417C494.182 260.505 491.83 265.977 488.758 271.833C485.782 277.689 482.134 283.497 477.814 289.257C473.59 294.921 468.838 299.913 463.558 304.233C462.982 306.825 462.502 309.369 462.118 311.865C461.83 314.265 461.686 316.569 461.686 318.777C461.686 326.169 463.798 329.865 468.022 329.865C470.614 329.865 473.158 328.713 475.654 326.409C478.246 324.105 480.646 321.225 482.854 317.769C485.158 314.217 487.126 310.569 488.758 306.825L490.918 307.977C487.078 316.137 482.902 322.617 478.39 327.417C473.878 332.121 469.03 334.473 463.846 334.473C459.238 334.473 456.07 332.745 454.342 329.289C452.614 325.833 451.99 321.513 452.47 316.329C449.11 321.993 445.51 326.457 441.67 329.721C437.926 332.889 433.942 334.473 429.718 334.473ZM430.726 299.337C434.086 295.977 437.35 292.137 440.518 287.817C443.686 283.401 446.614 278.841 449.302 274.137C452.086 269.433 454.534 264.873 456.646 260.457C458.758 256.041 460.39 252.105 461.542 248.649C462.694 245.097 463.27 242.361 463.27 240.441C463.27 239.481 463.126 238.857 462.838 238.569C462.646 238.281 462.454 238.137 462.262 238.137C461.494 238.137 460.15 239.385 458.23 241.881C456.406 244.281 454.246 247.545 451.75 251.673C449.254 255.801 446.71 260.505 444.118 265.785C441.526 271.065 439.03 276.585 436.63 282.345C434.326 288.105 432.358 293.769 430.726 299.337ZM464.854 299.337C469.078 295.113 472.918 290.457 476.374 285.369C479.926 280.281 482.998 275.193 485.59 270.105C488.182 265.017 490.198 260.361 491.638 256.137C493.078 251.913 493.798 248.601 493.798 246.201C493.798 245.241 493.654 244.617 493.366 244.329C493.174 244.041 492.982 243.897 492.79 243.897C491.83 243.897 490.198 245.481 487.894 248.649C485.686 251.721 483.142 255.897 480.262 261.177C477.478 266.457 474.694 272.409 471.91 279.033C469.222 285.657 466.87 292.425 464.854 299.337ZM501.38 336.489C495.524 336.489 491.108 334.857 488.132 331.593C485.252 328.425 483.812 324.489 483.812 319.785C483.812 315.465 484.868 310.905 486.98 306.105C489.188 301.305 492.068 296.793 495.62 292.569C499.268 288.345 503.252 284.937 507.572 282.345C511.892 279.657 516.164 278.313 520.388 278.313C522.596 278.313 524.612 278.889 526.436 280.041C528.356 281.193 529.316 283.545 529.316 287.097C529.316 290.745 528.212 294.201 526.004 297.465C523.892 300.633 521.06 303.465 517.508 305.961C514.052 308.457 510.212 310.521 505.988 312.153C501.86 313.689 497.732 314.649 493.604 315.033C493.412 315.993 493.268 316.905 493.172 317.769C493.076 318.633 493.028 319.449 493.028 320.217C493.028 323.193 493.796 325.977 495.332 328.569C496.964 331.065 499.988 332.313 504.404 332.313C508.532 332.313 512.612 331.161 516.644 328.857C520.676 326.457 524.42 323.337 527.876 319.497C531.332 315.657 534.26 311.433 536.66 306.825L538.388 308.121C535.796 313.881 532.484 318.873 528.452 323.097C524.516 327.321 520.196 330.585 515.492 332.889C510.884 335.289 506.18 336.489 501.38 336.489ZM494.324 312.297C496.916 311.433 499.844 310.185 503.108 308.553C506.372 306.825 509.492 304.809 512.468 302.505C515.54 300.201 518.036 297.657 519.956 294.873C521.972 292.089 522.98 289.161 522.98 286.089C522.98 285.033 522.788 284.217 522.404 283.641C522.02 283.065 521.204 282.777 519.956 282.777C517.652 282.777 515.204 283.689 512.612 285.513C510.02 287.241 507.524 289.545 505.124 292.425C502.724 295.305 500.564 298.473 498.644 301.929C496.724 305.385 495.284 308.841 494.324 312.297Z" fill="#9C89B8"/>
<path d="M776.72 336.14C771.44 336.14 767.456 335.228 764.768 333.404C762.08 331.676 760.736 328.748 760.736 324.62C760.736 324.332 760.976 324.188 761.456 324.188C762.128 324.188 763.328 324.428 765.056 324.908C766.784 325.388 770.096 325.628 774.992 325.628C783.248 325.628 790.88 324.716 797.888 322.892C804.896 320.972 810.944 318.38 816.032 315.116C821.216 311.852 825.2 308.204 827.984 304.172C830.864 300.044 832.304 295.82 832.304 291.5C832.304 287.564 831.2 284.396 828.992 281.996C826.784 279.596 823.856 277.772 820.208 276.524C816.656 275.276 812.768 274.46 808.544 274.076C804.32 273.596 800.144 273.356 796.016 273.356C794.192 273.356 792.32 273.404 790.4 273.5C788.576 273.5 786.848 273.5 785.216 273.5C783.008 281.276 780.848 289.1 778.736 296.972C776.624 304.844 774.464 312.476 772.256 319.868C769.856 319.868 767.84 319.196 766.208 317.852C764.576 316.508 763.76 314.876 763.76 312.956C763.76 311.804 764 310.46 764.48 308.924C764.96 307.388 765.392 305.996 765.776 304.748C766.352 302.828 767.36 299.612 768.8 295.1C770.24 290.588 771.968 285.308 773.984 279.26C776.096 273.212 778.4 266.876 780.896 260.252C783.392 253.628 785.936 247.148 788.528 240.812C791.216 234.476 793.808 228.86 796.304 223.964C792.272 224.636 788.864 225.596 786.08 226.844C783.392 228.092 781.28 229.244 779.744 230.3C778.208 231.26 777.104 231.74 776.432 231.74C775.76 231.74 774.8 231.26 773.552 230.3C772.4 229.34 771.824 228.524 771.824 227.852C776.624 225.836 781.616 224.012 786.8 222.38C792.08 220.748 798.464 219.932 805.952 219.932C809.12 219.932 812.624 220.22 816.464 220.796C820.304 221.276 823.952 222.332 827.408 223.964C830.864 225.5 833.696 227.804 835.904 230.876C838.112 233.852 839.216 237.836 839.216 242.828C839.216 247.532 838.208 251.564 836.192 254.924C834.176 258.188 831.536 260.924 828.272 263.132C825.008 265.244 821.456 266.924 817.616 268.172C813.776 269.42 809.984 270.332 806.24 270.908C813.344 271.292 819.056 272.3 823.376 273.932C827.792 275.564 831.104 277.532 833.312 279.836C835.616 282.044 837.152 284.396 837.92 286.892C838.688 289.388 839.072 291.788 839.072 294.092C839.072 299.66 837.632 304.7 834.752 309.212C831.872 313.724 828.08 317.66 823.376 321.02C818.672 324.38 813.536 327.164 807.968 329.372C802.4 331.676 796.88 333.356 791.408 334.412C785.936 335.564 781.04 336.14 776.72 336.14ZM786.08 270.188C791.36 269.996 796.592 269.42 801.776 268.46C807.056 267.404 811.856 265.772 816.176 263.564C820.496 261.356 823.952 258.476 826.544 254.924C829.232 251.372 830.576 246.956 830.576 241.676C830.576 236.684 829.376 232.844 826.976 230.156C824.672 227.468 821.648 225.596 817.904 224.54C814.256 223.484 810.368 222.956 806.24 222.956C805.76 222.956 805.28 222.956 804.8 222.956C804.416 222.956 803.984 223.004 803.504 223.1C800.048 229.82 796.88 237.212 794 245.276C791.216 253.34 788.576 261.644 786.08 270.188ZM861.161 329.948C855.305 329.948 850.889 328.316 847.913 325.052C845.033 321.884 843.593 317.948 843.593 313.244C843.593 308.924 844.649 304.364 846.761 299.564C848.969 294.764 851.849 290.252 855.401 286.028C859.049 281.804 863.033 278.396 867.353 275.804C871.673 273.116 875.945 271.772 880.169 271.772C882.377 271.772 884.393 272.348 886.217 273.5C888.137 274.652 889.097 277.004 889.097 280.556C889.097 284.204 887.993 287.66 885.785 290.924C883.673 294.092 880.841 296.924 877.289 299.42C873.833 301.916 869.993 303.98 865.769 305.612C861.641 307.148 857.513 308.108 853.385 308.492C853.193 309.452 853.049 310.364 852.953 311.228C852.857 312.092 852.809 312.908 852.809 313.676C852.809 316.652 853.577 319.436 855.113 322.028C856.745 324.524 859.769 325.772 864.185 325.772C868.313 325.772 872.393 324.62 876.425 322.316C880.457 319.916 884.201 316.796 887.657 312.956C891.113 309.116 894.041 304.892 896.441 300.284L898.169 301.58C895.577 307.34 892.265 312.332 888.233 316.556C884.297 320.78 879.977 324.044 875.273 326.348C870.665 328.748 865.961 329.948 861.161 329.948ZM854.105 305.756C856.697 304.892 859.625 303.644 862.889 302.012C866.153 300.284 869.273 298.268 872.249 295.964C875.321 293.66 877.817 291.116 879.737 288.332C881.753 285.548 882.761 282.62 882.761 279.548C882.761 278.492 882.569 277.676 882.185 277.1C881.801 276.524 880.985 276.236 879.737 276.236C877.433 276.236 874.985 277.148 872.393 278.972C869.801 280.7 867.305 283.004 864.905 285.884C862.505 288.764 860.345 291.932 858.425 295.388C856.505 298.844 855.065 302.3 854.105 305.756ZM900.475 330.38C897.499 330.38 895.003 329.372 892.986 327.356C890.874 325.436 889.818 322.46 889.818 318.428C889.818 314.972 890.586 311.276 892.122 307.34C893.658 303.308 895.771 299.372 898.459 295.532C901.147 291.596 904.171 288.044 907.531 284.876C910.987 281.612 914.587 279.02 918.331 277.1C922.171 275.18 925.963 274.22 929.707 274.22C933.451 274.22 936.571 275.228 939.067 277.244C941.563 279.164 942.811 281.756 942.811 285.02C942.811 287.42 942.139 289.052 940.795 289.916C939.547 290.78 937.867 291.212 935.755 291.212C936.235 289.484 936.475 287.804 936.475 286.172C936.475 283.964 935.947 282.092 934.891 280.556C933.835 278.924 932.011 278.108 929.419 278.108C926.731 278.108 923.995 279.068 921.211 280.988C918.427 282.812 915.739 285.308 913.147 288.476C910.555 291.548 908.251 294.908 906.235 298.556C904.219 302.204 902.635 305.804 901.483 309.356C900.331 312.908 899.755 316.076 899.755 318.86C899.755 322.604 901.051 324.476 903.643 324.476C905.851 324.476 908.251 323.468 910.843 321.452C913.435 319.34 916.075 316.7 918.763 313.532C921.547 310.268 924.187 306.908 926.683 303.452C929.179 299.996 931.387 296.828 933.307 293.948C933.691 293.372 933.931 293.084 934.027 293.084C934.891 293.18 936.043 293.564 937.483 294.236C938.923 294.812 939.643 295.628 939.643 296.684C939.643 297.548 939.211 298.748 938.347 300.284C937.483 301.724 936.523 303.404 935.467 305.324C934.411 307.244 933.451 309.212 932.587 311.228C931.723 313.148 931.291 314.972 931.291 316.7C931.291 318.14 931.675 319.58 932.443 321.02C933.211 322.364 934.459 323.036 936.187 323.036C938.779 323.036 942.187 321.164 946.411 317.42C950.635 313.58 954.907 307.868 959.227 300.284L960.667 301.724C958.651 306.908 956.059 311.468 952.891 315.404C949.723 319.34 946.315 322.412 942.667 324.62C939.115 326.828 935.611 327.932 932.155 327.932C928.603 327.932 925.963 326.876 924.235 324.764C922.603 322.652 921.787 320.348 921.787 317.852C921.787 316.604 921.931 315.212 922.219 313.676C918.091 319.244 914.299 323.42 910.843 326.204C907.483 328.988 904.027 330.38 900.475 330.38ZM967.081 327.932C963.817 327.932 961.177 326.492 959.161 323.612C957.241 320.636 956.281 317.228 956.281 313.388C956.281 310.604 956.713 307.388 957.577 303.74C958.537 300.092 959.689 296.492 961.033 292.94C962.377 289.388 963.769 286.46 965.209 284.156C966.649 281.852 967.897 280.7 968.953 280.7C969.433 280.7 970.249 280.988 971.401 281.564C972.553 282.044 973.513 282.716 974.281 283.58C973.225 285.212 971.929 287.708 970.393 291.068C968.857 294.428 967.513 298.028 966.361 301.868C965.209 305.708 964.633 309.26 964.633 312.524C964.633 313.292 964.729 314.492 964.921 316.124C965.113 317.66 965.593 319.052 966.361 320.3C967.129 321.548 968.281 322.172 969.817 322.172C971.641 322.172 973.513 321.26 975.433 319.436C977.353 317.516 979.273 315.068 981.193 312.092C983.209 309.116 985.129 305.9 986.953 302.444C988.777 298.988 990.457 295.676 991.993 292.508C993.625 289.34 994.969 286.7 996.025 284.588C996.601 284.684 997.417 284.876 998.473 285.164C999.625 285.452 1000.63 285.836 1001.5 286.316C1002.46 286.796 1002.94 287.468 1002.94 288.332C1002.94 288.716 1002.46 290.012 1001.5 292.22C1000.54 294.332 999.385 296.972 998.041 300.14C996.793 303.212 995.689 306.332 994.729 309.5C993.769 312.668 993.289 315.452 993.289 317.852C993.289 319.58 993.625 320.972 994.297 322.028C995.065 323.084 996.313 323.612 998.041 323.612C1000.06 323.612 1002.51 322.7 1005.39 320.876C1008.27 319.052 1011.19 316.412 1014.17 312.956C1017.15 309.404 1019.79 305.18 1022.09 300.284L1023.96 301.58C1021.95 306.764 1019.31 311.372 1016.04 315.404C1012.78 319.34 1009.32 322.412 1005.67 324.62C1002.03 326.828 998.473 327.932 995.017 327.932C991.177 327.932 988.537 326.876 987.097 324.764C985.657 322.748 984.937 320.252 984.937 317.276C984.937 316.124 985.033 314.972 985.225 313.82C985.417 312.572 985.657 311.324 985.945 310.076C983.257 314.78 980.329 318.956 977.161 322.604C974.089 326.156 970.729 327.932 967.081 327.932ZM1031.66 330.236C1023.12 330.236 1018.85 325.484 1018.85 315.98C1018.85 311.756 1019.61 306.572 1021.15 300.428C1022.78 294.188 1024.8 287.804 1027.2 281.276C1026.24 281.084 1025.33 280.94 1024.46 280.844C1023.6 280.652 1022.78 280.412 1022.01 280.124V277.532C1022.78 277.628 1023.69 277.724 1024.75 277.82C1025.81 277.916 1027.01 278.012 1028.35 278.108C1030.37 272.924 1032.53 267.932 1034.83 263.132C1037.13 258.236 1039.39 253.916 1041.6 250.172C1043.9 246.332 1046.06 243.308 1048.08 241.1C1050.19 238.796 1051.97 237.644 1053.41 237.644C1054.17 237.644 1054.85 237.932 1055.42 238.508C1056.09 238.988 1056.43 239.756 1056.43 240.812C1056.43 242.444 1055.42 245.132 1053.41 248.876C1051.39 252.524 1048.89 256.892 1045.92 261.98C1042.94 267.068 1040.06 272.588 1037.28 278.54H1042.61C1045.77 278.54 1049.09 278.492 1052.54 278.396C1056.09 278.3 1059.65 278.06 1063.2 277.676V280.268C1052.73 281.42 1044.29 281.996 1037.85 281.996H1035.69C1033.49 287.084 1031.61 292.316 1030.08 297.692C1028.54 303.068 1027.77 308.3 1027.77 313.388C1027.77 317.516 1028.4 320.492 1029.65 322.316C1030.89 324.044 1032.96 324.908 1035.84 324.908C1040.83 324.908 1045.73 322.7 1050.53 318.284C1055.33 313.868 1059.55 307.868 1063.2 300.284L1065.07 301.724C1062.77 307.1 1059.84 311.948 1056.29 316.268C1052.83 320.588 1048.99 323.996 1044.77 326.492C1040.54 328.988 1036.17 330.236 1031.66 330.236ZM1076.04 329.948C1070.18 329.948 1065.76 328.316 1062.79 325.052C1059.91 321.884 1058.47 317.948 1058.47 313.244C1058.47 308.924 1059.52 304.364 1061.64 299.564C1063.84 294.764 1066.72 290.252 1070.28 286.028C1073.92 281.804 1077.91 278.396 1082.23 275.804C1086.55 273.116 1090.82 271.772 1095.04 271.772C1097.25 271.772 1099.27 272.348 1101.09 273.5C1103.01 274.652 1103.97 277.004 1103.97 280.556C1103.97 284.204 1102.87 287.66 1100.66 290.924C1098.55 294.092 1095.72 296.924 1092.16 299.42C1088.71 301.916 1084.87 303.98 1080.64 305.612C1076.52 307.148 1072.39 308.108 1068.26 308.492C1068.07 309.452 1067.92 310.364 1067.83 311.228C1067.73 312.092 1067.68 312.908 1067.68 313.676C1067.68 316.652 1068.45 319.436 1069.99 322.028C1071.62 324.524 1074.64 325.772 1079.06 325.772C1083.19 325.772 1087.27 324.62 1091.3 322.316C1095.33 319.916 1099.08 316.796 1102.53 312.956C1105.99 309.116 1108.92 304.892 1111.32 300.284L1113.04 301.58C1110.45 307.34 1107.14 312.332 1103.11 316.556C1099.17 320.78 1094.85 324.044 1090.15 326.348C1085.54 328.748 1080.84 329.948 1076.04 329.948ZM1068.98 305.756C1071.57 304.892 1074.5 303.644 1077.76 302.012C1081.03 300.284 1084.15 298.268 1087.12 295.964C1090.2 293.66 1092.69 291.116 1094.61 288.332C1096.63 285.548 1097.64 282.62 1097.64 279.548C1097.64 278.492 1097.44 277.676 1097.06 277.1C1096.68 276.524 1095.86 276.236 1094.61 276.236C1092.31 276.236 1089.86 277.148 1087.27 278.972C1084.68 280.7 1082.18 283.004 1079.78 285.884C1077.38 288.764 1075.22 291.932 1073.3 295.388C1071.38 298.844 1069.94 302.3 1068.98 305.756ZM1098.36 263.42C1097.68 263.036 1097.16 262.412 1096.77 261.548C1096.48 260.684 1096.34 260.06 1096.34 259.676C1096.34 258.812 1096.82 257.468 1097.78 255.644C1098.84 253.724 1100.13 251.756 1101.67 249.74C1103.2 247.628 1104.84 245.852 1106.56 244.412C1108.29 242.972 1109.88 242.252 1111.32 242.252C1112.08 242.252 1112.76 242.588 1113.33 243.26C1114 243.836 1114.39 244.988 1114.48 246.716C1111.03 249.692 1108 252.524 1105.41 255.212C1102.82 257.9 1100.47 260.636 1098.36 263.42Z" fill="#9C89B8"/>
<line y1="-0.5" x2="38.4813" y2="-0.5" transform="matrix(0.668156 -0.744021 0.78696 0.617004 709 275.306)" stroke="#C79AC2"/>
<line y1="-0.5" x2="38.4813" y2="-0.5" transform="matrix(0.668156 0.744022 -0.78696 0.617004 564 246.675)" stroke="#C79AC2"/>
<line y1="-0.5" x2="38.4813" y2="-0.5" transform="matrix(0.668155 0.744022 -0.78696 0.617004 709 321.425)" stroke="#C79AC2"/>
<line y1="-0.5" x2="38.4813" y2="-0.5" transform="matrix(0.668155 -0.744022 0.78696 0.617004 564 350.056)" stroke="#C79AC2"/>
<line y1="-0.5" x2="94.643" y2="-0.5" transform="matrix(0.44654 0.894764 -0.91676 0.399438 561 175.662)" stroke="#9C89B8"/>
<line y1="-0.5" x2="26.5" y2="-0.5" transform="matrix(0.44654 0.894764 -0.91676 0.399438 718 392.438)" stroke="#9C89B8"/>
<line y1="-0.5" x2="30.2858" y2="-0.5" transform="matrix(0.44654 0.894764 -0.91676 0.399438 689.385 333.398)" stroke="#9C89B8"/>
<line y1="-0.5" x2="30.2858" y2="-0.5" transform="matrix(0.44654 -0.894764 0.91676 0.399438 589 357.867)" stroke="#9C89B8"/>
<line y1="-0.5" x2="27.0414" y2="-0.5" transform="matrix(0.44654 -0.894764 0.91676 0.399438 555 416.633)" stroke="#9C89B8"/>
<line y1="-0.5" x2="94.643" y2="-0.5" transform="matrix(0.446539 -0.894764 0.91676 0.399438 689 260.346)" stroke="#9C89B8"/>
<line y1="-0.5" x2="20.6012" y2="-0.5" transform="matrix(0.185438 -0.982656 0.986698 0.162564 617.69 360.803)" stroke="#6A558A"/>
<line y1="-0.5" x2="75.1185" y2="-0.5" transform="matrix(0.18544 -0.982656 0.986698 0.162566 598 466.253)" stroke="#6A558A"/>
<line y1="-0.5" x2="131.099" y2="-0.5" transform="matrix(0.185438 -0.982656 0.986698 0.162564 670 246.556)" stroke="#6A558A"/>
<line x1="645.5" y1="239.2" x2="645.5" y2="89.7" stroke="#4D3570"/>
<line x1="645.5" y1="493.35" x2="645.5" y2="392.438" stroke="#4D3570"/>
<line x1="645.5" y1="354.128" x2="645.5" y2="342.916" stroke="black"/>
<line y1="-0.5" x2="131.099" y2="-0.5" transform="matrix(0.185438 0.982656 -0.986698 0.162564 598 122.403)" stroke="#6A558A"/>
<line y1="-0.5" x2="16.8816" y2="-0.5" transform="matrix(0.185438 0.982656 -0.986698 0.162564 667 341.047)" stroke="#6A558A"/>
<line y1="-0.5" x2="74.7555" y2="-0.5" transform="matrix(0.185439 0.982656 -0.986698 0.162564 680 392.438)" stroke="#6A558A"/>
<path d="M541.792 387.391V387.031L542.62 386.707C543.028 386.539 543.304 386.323 543.448 386.059C543.616 385.771 543.7 385.387 543.7 384.907V366.115C543.7 365.635 543.628 365.263 543.484 364.999C543.364 364.711 543.076 364.483 542.62 364.315L541.792 363.991V363.631H559.036L559.252 369.175H558.892L557.344 365.791C557.128 365.359 556.9 365.011 556.66 364.747C556.42 364.483 556.06 364.351 555.58 364.351H549.1V374.755H552.952C553.432 374.755 553.792 374.635 554.032 374.395C554.296 374.131 554.524 373.783 554.716 373.351L555.436 371.911H555.796V378.391H555.436L554.716 376.879C554.5 376.447 554.272 376.111 554.032 375.871C553.792 375.607 553.432 375.475 552.952 375.475H549.1V386.671H556.372C556.852 386.671 557.224 386.551 557.488 386.311C557.752 386.047 557.968 385.687 558.136 385.231L559.612 381.847H559.972L559.756 387.391H541.792ZM567.917 387.931C566.741 387.931 565.685 387.787 564.749 387.499C563.813 387.235 562.949 386.899 562.157 386.491L562.193 382.207H562.553L563.777 384.367C564.305 385.327 564.881 386.047 565.505 386.527C566.153 386.983 566.969 387.211 567.953 387.211C569.105 387.211 570.029 386.959 570.725 386.455C571.445 385.927 571.805 385.231 571.805 384.367C571.805 383.575 571.553 382.927 571.049 382.423C570.545 381.919 569.609 381.463 568.241 381.055L566.729 380.587C565.265 380.155 564.113 379.483 563.273 378.571C562.433 377.659 562.013 376.543 562.013 375.223C562.013 373.639 562.637 372.295 563.885 371.191C565.133 370.087 566.921 369.535 569.249 369.535C570.185 369.535 571.061 369.643 571.877 369.859C572.717 370.051 573.521 370.351 574.289 370.759L574.073 374.647H573.713L572.453 372.415C571.997 371.623 571.541 371.071 571.085 370.759C570.653 370.423 569.993 370.255 569.105 370.255C568.289 370.255 567.521 370.483 566.801 370.939C566.081 371.395 565.721 372.043 565.721 372.883C565.721 373.699 566.021 374.347 566.621 374.827C567.245 375.307 568.157 375.751 569.357 376.159L570.977 376.627C572.705 377.155 573.941 377.887 574.685 378.823C575.429 379.735 575.801 380.839 575.801 382.135C575.801 383.887 575.105 385.291 573.713 386.347C572.345 387.403 570.413 387.931 567.917 387.931ZM584.208 387.931C582.672 387.931 581.472 387.547 580.608 386.779C579.768 386.011 579.348 384.787 579.348 383.107V370.795H576.864V370.435L577.728 370.291C578.472 370.123 579.108 369.883 579.636 369.571C580.188 369.259 580.728 368.839 581.256 368.311L584.208 365.035H584.568L584.46 370.075H588.492V370.795H584.424V383.755C584.424 384.595 584.604 385.231 584.964 385.663C585.348 386.095 585.828 386.311 586.404 386.311C586.908 386.311 587.352 386.191 587.736 385.951C588.12 385.687 588.504 385.339 588.888 384.907L589.248 385.267C588.768 386.083 588.108 386.731 587.268 387.211C586.428 387.691 585.408 387.931 584.208 387.931ZM590.484 387.391V387.031L590.916 386.887C591.78 386.599 592.212 385.999 592.212 385.087V365.863C592.212 365.359 592.128 364.987 591.96 364.747C591.792 364.507 591.468 364.327 590.988 364.207L590.448 364.063V363.703L596.784 362.155L597.36 362.479L597.216 367.555V372.055C598.056 371.359 598.956 370.771 599.916 370.291C600.9 369.787 601.98 369.535 603.156 369.535C604.716 369.535 605.952 369.979 606.864 370.867C607.8 371.755 608.268 373.123 608.268 374.971V385.123C608.268 385.603 608.364 385.987 608.556 386.275C608.748 386.563 609.084 386.779 609.564 386.923L609.852 387.031V387.391H601.428V387.031L601.86 386.923C602.724 386.635 603.156 386.023 603.156 385.087V373.783C603.156 372.823 602.988 372.163 602.652 371.803C602.34 371.443 601.776 371.263 600.96 371.263C600.432 371.263 599.856 371.371 599.232 371.587C598.608 371.779 597.972 372.127 597.324 372.631V385.159C597.324 386.095 597.756 386.695 598.62 386.959L598.908 387.031V387.391H590.484ZM620.295 369.535C621.855 369.535 623.187 369.859 624.291 370.507C625.395 371.131 626.235 371.995 626.811 373.099C627.411 374.179 627.711 375.415 627.711 376.807C627.711 377.071 627.699 377.347 627.675 377.635C627.651 377.899 627.603 378.139 627.531 378.355H616.803C616.827 380.947 617.283 382.819 618.171 383.971C619.083 385.099 620.427 385.663 622.203 385.663C623.403 385.663 624.375 385.471 625.119 385.087C625.863 384.703 626.559 384.139 627.207 383.395L627.567 383.719C626.823 385.039 625.827 386.071 624.579 386.815C623.355 387.559 621.879 387.931 620.151 387.931C618.447 387.931 616.935 387.571 615.615 386.851C614.295 386.107 613.263 385.051 612.519 383.683C611.775 382.315 611.403 380.683 611.403 378.787C611.403 376.819 611.835 375.151 612.699 373.783C613.563 372.391 614.667 371.335 616.011 370.615C617.379 369.895 618.807 369.535 620.295 369.535ZM620.187 370.255C619.491 370.255 618.891 370.471 618.387 370.903C617.907 371.311 617.523 372.055 617.235 373.135C616.971 374.191 616.827 375.691 616.803 377.635H622.959C623.199 375.019 623.103 373.135 622.671 371.983C622.239 370.831 621.411 370.255 620.187 370.255ZM636.345 387.931C634.809 387.931 633.609 387.547 632.745 386.779C631.905 386.011 631.485 384.787 631.485 383.107V370.795H629.001V370.435L629.865 370.291C630.609 370.123 631.245 369.883 631.773 369.571C632.325 369.259 632.865 368.839 633.393 368.311L636.345 365.035H636.705L636.597 370.075H640.629V370.795H636.561V383.755C636.561 384.595 636.741 385.231 637.101 385.663C637.485 386.095 637.965 386.311 638.541 386.311C639.045 386.311 639.489 386.191 639.873 385.951C640.257 385.687 640.641 385.339 641.025 384.907L641.385 385.267C640.905 386.083 640.245 386.731 639.405 387.211C638.565 387.691 637.545 387.931 636.345 387.931ZM646.833 367.663C646.017 367.663 645.321 367.411 644.745 366.907C644.193 366.379 643.917 365.719 643.917 364.927C643.917 364.111 644.193 363.451 644.745 362.947C645.321 362.443 646.017 362.191 646.833 362.191C647.649 362.191 648.333 362.443 648.885 362.947C649.437 363.451 649.713 364.111 649.713 364.927C649.713 365.719 649.437 366.379 648.885 366.907C648.333 367.411 647.649 367.663 646.833 367.663ZM642.585 387.391V387.031L643.089 386.887C643.569 386.743 643.893 386.527 644.061 386.239C644.253 385.951 644.349 385.567 644.349 385.087V373.819C644.349 373.315 644.253 372.943 644.061 372.703C643.893 372.439 643.569 372.259 643.089 372.163L642.585 372.055V371.695L649.173 369.571L649.533 369.931L649.425 375.043V385.123C649.425 385.603 649.509 385.987 649.677 386.275C649.869 386.563 650.193 386.779 650.649 386.923L651.009 387.031V387.391H642.585ZM661.531 387.931C659.899 387.931 658.411 387.583 657.067 386.887C655.747 386.167 654.691 385.135 653.899 383.791C653.131 382.423 652.747 380.755 652.747 378.787C652.747 376.843 653.167 375.187 654.007 373.819C654.871 372.427 656.011 371.371 657.427 370.651C658.867 369.907 660.439 369.535 662.143 369.535C663.535 369.535 664.711 369.763 665.671 370.219C666.631 370.675 667.363 371.275 667.867 372.019C668.371 372.739 668.623 373.495 668.623 374.287C668.623 374.959 668.419 375.487 668.011 375.871C667.603 376.231 667.075 376.411 666.427 376.411C665.731 376.411 665.167 376.159 664.735 375.655C664.303 375.151 664.051 374.491 663.979 373.675C663.955 373.147 663.967 372.703 664.015 372.343C664.063 371.959 664.063 371.575 664.015 371.191C663.919 370.783 663.763 370.519 663.547 370.399C663.355 370.255 663.079 370.183 662.719 370.183C661.255 370.183 660.115 370.819 659.299 372.091C658.507 373.363 658.111 375.391 658.111 378.175C658.111 380.599 658.555 382.459 659.443 383.755C660.355 385.027 661.747 385.663 663.619 385.663C664.747 385.663 665.659 385.459 666.355 385.051C667.051 384.643 667.723 384.031 668.371 383.215L668.731 383.503C668.131 384.919 667.207 386.011 665.959 386.779C664.711 387.547 663.235 387.931 661.531 387.931ZM674.712 367.663C673.896 367.663 673.2 367.411 672.624 366.907C672.072 366.379 671.796 365.719 671.796 364.927C671.796 364.111 672.072 363.451 672.624 362.947C673.2 362.443 673.896 362.191 674.712 362.191C675.528 362.191 676.212 362.443 676.764 362.947C677.316 363.451 677.592 364.111 677.592 364.927C677.592 365.719 677.316 366.379 676.764 366.907C676.212 367.411 675.528 367.663 674.712 367.663ZM670.464 387.391V387.031L670.968 386.887C671.448 386.743 671.772 386.527 671.94 386.239C672.132 385.951 672.228 385.567 672.228 385.087V373.819C672.228 373.315 672.132 372.943 671.94 372.703C671.772 372.439 671.448 372.259 670.968 372.163L670.464 372.055V371.695L677.052 369.571L677.412 369.931L677.304 375.043V385.123C677.304 385.603 677.388 385.987 677.556 386.275C677.748 386.563 678.072 386.779 678.528 386.923L678.888 387.031V387.391H670.464ZM689.518 369.535C691.078 369.535 692.41 369.859 693.514 370.507C694.618 371.131 695.458 371.995 696.034 373.099C696.634 374.179 696.934 375.415 696.934 376.807C696.934 377.071 696.922 377.347 696.898 377.635C696.874 377.899 696.826 378.139 696.754 378.355H686.026C686.05 380.947 686.506 382.819 687.394 383.971C688.306 385.099 689.65 385.663 691.426 385.663C692.626 385.663 693.598 385.471 694.342 385.087C695.086 384.703 695.782 384.139 696.43 383.395L696.79 383.719C696.046 385.039 695.05 386.071 693.802 386.815C692.578 387.559 691.102 387.931 689.374 387.931C687.67 387.931 686.158 387.571 684.838 386.851C683.518 386.107 682.486 385.051 681.742 383.683C680.998 382.315 680.626 380.683 680.626 378.787C680.626 376.819 681.058 375.151 681.922 373.783C682.786 372.391 683.89 371.335 685.234 370.615C686.602 369.895 688.03 369.535 689.518 369.535ZM689.41 370.255C688.714 370.255 688.114 370.471 687.61 370.903C687.13 371.311 686.746 372.055 686.458 373.135C686.194 374.191 686.05 375.691 686.026 377.635H692.182C692.422 375.019 692.326 373.135 691.894 371.983C691.462 370.831 690.634 370.255 689.41 370.255ZM698.728 387.391V387.031L699.232 386.887C700.072 386.647 700.492 386.059 700.492 385.123V373.855C700.492 373.327 700.408 372.943 700.24 372.703C700.072 372.439 699.748 372.259 699.268 372.163L698.728 372.019V371.659L704.884 369.571L705.244 369.931L705.532 372.091C706.372 371.347 707.32 370.735 708.376 370.255C709.432 369.775 710.476 369.535 711.508 369.535C713.092 369.535 714.304 369.967 715.144 370.831C716.008 371.695 716.44 373.015 716.44 374.791V385.159C716.44 386.095 716.896 386.683 717.808 386.923L718.132 387.031V387.391H709.636V387.031L710.104 386.887C710.944 386.623 711.364 386.035 711.364 385.123V373.639C711.364 372.103 710.596 371.335 709.06 371.335C708.004 371.335 706.852 371.863 705.604 372.919V385.159C705.604 386.095 706.024 386.683 706.864 386.923L707.188 387.031V387.391H698.728ZM719.54 387.391V387.031L720.044 386.887C720.884 386.647 721.304 386.059 721.304 385.123V373.855C721.304 373.327 721.22 372.943 721.052 372.703C720.884 372.439 720.56 372.259 720.08 372.163L719.54 372.019V371.659L725.696 369.571L726.056 369.931L726.344 372.091C727.184 371.347 728.132 370.735 729.188 370.255C730.244 369.775 731.288 369.535 732.32 369.535C733.904 369.535 735.116 369.967 735.956 370.831C736.82 371.695 737.252 373.015 737.252 374.791V385.159C737.252 386.095 737.708 386.683 738.62 386.923L738.944 387.031V387.391H730.448V387.031L730.916 386.887C731.756 386.623 732.176 386.035 732.176 385.123V373.639C732.176 372.103 731.408 371.335 729.872 371.335C728.816 371.335 727.664 371.863 726.416 372.919V385.159C726.416 386.095 726.836 386.683 727.676 386.923L728 387.031V387.391H719.54ZM749.389 369.535C750.949 369.535 752.281 369.859 753.385 370.507C754.489 371.131 755.329 371.995 755.905 373.099C756.505 374.179 756.805 375.415 756.805 376.807C756.805 377.071 756.793 377.347 756.769 377.635C756.745 377.899 756.697 378.139 756.625 378.355H745.897C745.921 380.947 746.377 382.819 747.265 383.971C748.177 385.099 749.521 385.663 751.297 385.663C752.497 385.663 753.469 385.471 754.213 385.087C754.957 384.703 755.653 384.139 756.301 383.395L756.661 383.719C755.917 385.039 754.921 386.071 753.673 386.815C752.449 387.559 750.973 387.931 749.245 387.931C747.541 387.931 746.029 387.571 744.709 386.851C743.389 386.107 742.357 385.051 741.613 383.683C740.869 382.315 740.497 380.683 740.497 378.787C740.497 376.819 740.929 375.151 741.793 373.783C742.657 372.391 743.761 371.335 745.105 370.615C746.473 369.895 747.901 369.535 749.389 369.535ZM749.281 370.255C748.585 370.255 747.985 370.471 747.481 370.903C747.001 371.311 746.617 372.055 746.329 373.135C746.065 374.191 745.921 375.691 745.897 377.635H752.053C752.293 375.019 752.197 373.135 751.765 371.983C751.333 370.831 750.505 370.255 749.281 370.255Z" fill="#9C89B8"/>
</svg>
